<svg width="21" height="22" viewBox="0 0 21 22" fill="none" xmlns="http://www.w3.org/2000/svg">
<path d="M18.0469 15.4104H20.0469V17.4104H0.046875V15.4104H2.04688V8.4104C2.04688 6.28867 2.88973 4.25384 4.39002 2.75355C5.89031 1.25326 7.92514 0.4104 10.0469 0.4104C12.1686 0.4104 14.2034 1.25326 15.7037 2.75355C17.204 4.25384 18.0469 6.28867 18.0469 8.4104V15.4104ZM16.0469 15.4104V8.4104C16.0469 6.8191 15.4147 5.29298 14.2895 4.16776C13.1643 3.04254 11.6382 2.4104 10.0469 2.4104C8.45558 2.4104 6.92945 3.04254 5.80423 4.16776C4.67902 5.29298 4.04688 6.8191 4.04688 8.4104V15.4104H16.0469ZM7.04688 19.4104H13.0469V21.4104H7.04688V19.4104Z" fill="#A6A9B3"/>
</svg>
