<svg width="25" height="25" viewBox="0 0 25 25" fill="none" xmlns="http://www.w3.org/2000/svg">
<path d="M2.69775 20.0323H4.69775M4.69775 20.0323H14.6978M4.69775 20.0323V6.23245C4.69775 5.11235 4.69775 4.55188 4.91574 4.12405C5.10749 3.74773 5.41323 3.44199 5.78955 3.25024C6.21737 3.03226 6.77784 3.03226 7.89795 3.03226H11.4979C12.6181 3.03226 13.1773 3.03226 13.6051 3.25024C13.9815 3.44199 14.2882 3.74773 14.48 4.12405C14.6978 4.55146 14.6978 5.11125 14.6978 6.22917V12.0323M14.6978 20.0323H20.6978M14.6978 20.0323V12.0323M20.6978 20.0323H22.6978M20.6978 20.0323V12.0323C20.6978 11.1004 20.6977 10.6347 20.5454 10.2671C20.3424 9.77706 19.9534 9.38749 19.4634 9.1845C19.0958 9.03226 18.6294 9.03226 17.6975 9.03226C16.7656 9.03226 16.2997 9.03226 15.9321 9.1845C15.4421 9.38749 15.053 9.77706 14.85 10.2671C14.6978 10.6347 14.6978 11.1004 14.6978 12.0323M7.69775 10.0323H11.6978M7.69775 7.03226H11.6978" stroke="#333399" stroke-width="2" stroke-linecap="round" stroke-linejoin="round"/>
</svg>
