<svg width="24" height="25" viewBox="0 0 24 25" fill="none" xmlns="http://www.w3.org/2000/svg">
<path d="M9 9.00488V6.20508C9 5.08497 9 4.5245 9.21799 4.09668C9.40973 3.72036 9.71547 3.41462 10.0918 3.22287C10.5196 3.00488 11.0801 3.00488 12.2002 3.00488H17.8002C18.9203 3.00488 19.4801 3.00488 19.9079 3.22287C20.2842 3.41462 20.5905 3.72036 20.7822 4.09668C21.0002 4.5245 21.0002 5.08456 21.0002 6.20466V11.8047C21.0002 12.9248 21.0002 13.4848 20.7822 13.9127C20.5905 14.289 20.2839 14.5954 19.9076 14.7871C19.4802 15.0049 18.921 15.0049 17.8031 15.0049H15M9 9.00488H6.2002C5.08009 9.00488 4.51962 9.00488 4.0918 9.22287C3.71547 9.41462 3.40973 9.72036 3.21799 10.0967C3 10.5245 3 11.085 3 12.2051V17.8051C3 18.9252 3 19.4849 3.21799 19.9128C3.40973 20.2891 3.71547 20.5954 4.0918 20.7871C4.5192 21.0049 5.07899 21.0049 6.19691 21.0049H11.8036C12.9215 21.0049 13.4805 21.0049 13.9079 20.7871C14.2842 20.5954 14.5905 20.2888 14.7822 19.9125C15 19.4851 15 18.9259 15 17.808V15.0049M9 9.00488H11.8002C12.9203 9.00488 13.4801 9.00488 13.9079 9.22287C14.2842 9.41462 14.5905 9.72036 14.7822 10.0967C15 10.5241 15 11.0839 15 12.2018L15 15.0049" stroke="white" stroke-width="2" stroke-linecap="round" stroke-linejoin="round"/>
</svg>
