<svg width="74" height="74" viewBox="0 0 74 74" fill="none" xmlns="http://www.w3.org/2000/svg">
<rect width="74" height="74" rx="14" fill="#9898CB"/>
<circle cx="36.5" cy="37.5" r="20.5" fill="#4848A4"/>
<path d="M25.2609 27C23.4677 27 22 28.4677 22 30.2609V44.6087C22 46.4019 23.4677 47.8696 25.2609 47.8696H48.7391C50.5323 47.8696 52 46.4019 52 44.6087V30.2609C52 28.4677 50.5323 27 48.7391 27H25.2609ZM25.2609 28.3043H48.7391C49.8273 28.3043 50.6957 29.1727 50.6957 30.2609V44.6087C50.6957 45.6968 49.8273 46.5652 48.7391 46.5652H25.2609C24.1727 46.5652 23.3043 45.6968 23.3043 44.6087V30.2609C23.3043 29.1727 24.1727 28.3043 25.2609 28.3043ZM30.3967 32.2174C30.3259 32.2265 30.2571 32.2471 30.1929 32.2785L26.2799 34.2351C26.1231 34.3107 26.0029 34.4456 25.9455 34.6099C25.8882 34.7743 25.8985 34.9547 25.9742 35.1114C26.0499 35.2682 26.1847 35.3884 26.3491 35.4458C26.5134 35.5031 26.6938 35.4928 26.8505 35.4171L30.4783 33.6033L34.106 35.4171C34.2627 35.4928 34.4431 35.5031 34.6075 35.4458C34.7718 35.3884 34.9067 35.2682 34.9823 35.1114C35.058 34.9547 35.0683 34.7743 35.011 34.6099C34.9537 34.4456 34.8334 34.3107 34.6766 34.2351L30.7636 32.2785C30.6498 32.223 30.5224 32.2017 30.3967 32.2174ZM38.1209 32.8696C37.948 32.8939 37.7917 32.9859 37.6866 33.1254C37.5815 33.2649 37.5361 33.4405 37.5605 33.6135C37.5848 33.7864 37.6768 33.9426 37.8163 34.0477C37.9558 34.1529 38.1314 34.1982 38.3043 34.1739H47.4348C47.5212 34.1751 47.607 34.1592 47.6872 34.1269C47.7674 34.0947 47.8404 34.0469 47.9019 33.9862C47.9635 33.9255 48.0124 33.8532 48.0457 33.7735C48.0791 33.6937 48.0962 33.6082 48.0962 33.5217C48.0962 33.4353 48.0791 33.3497 48.0457 33.27C48.0124 33.1903 47.9635 33.118 47.9019 33.0573C47.8404 32.9966 47.7674 32.9488 47.6872 32.9165C47.607 32.8843 47.5212 32.8683 47.4348 32.8696H38.3043C38.284 32.8686 38.2636 32.8686 38.2432 32.8696C38.2228 32.8686 38.2024 32.8686 38.1821 32.8696C38.1617 32.8686 38.1413 32.8686 38.1209 32.8696ZM38.1209 35.4783C37.948 35.5026 37.7917 35.5946 37.6866 35.7341C37.5815 35.8736 37.5361 36.0492 37.5605 36.2221C37.5848 36.3951 37.6768 36.5513 37.8163 36.6564C37.9558 36.7615 38.1314 36.8069 38.3043 36.7826H45.4783C45.5647 36.7838 45.6505 36.7679 45.7307 36.7356C45.8109 36.7034 45.8839 36.6556 45.9454 36.5949C46.007 36.5342 46.0558 36.4619 46.0892 36.3822C46.1225 36.3024 46.1397 36.2169 46.1397 36.1304C46.1397 36.044 46.1225 35.9584 46.0892 35.8787C46.0558 35.799 46.007 35.7267 45.9454 35.666C45.8839 35.6053 45.8109 35.5575 45.7307 35.5252C45.6505 35.493 45.5647 35.477 45.4783 35.4783H38.3043C38.284 35.4773 38.2636 35.4773 38.2432 35.4783C38.2228 35.4773 38.2024 35.4773 38.1821 35.4783C38.1617 35.4773 38.1413 35.4773 38.1209 35.4783ZM28.3383 36.1304C27.7798 36.1304 27.2716 36.4965 27.0951 37.0272L26.606 38.5353L26.5652 38.6372V38.7391V39.3913V41.3478V42V42.3261C26.5652 42.5061 26.7113 42.6522 26.8913 42.6522H28.1957C28.3757 42.6522 28.5217 42.5061 28.5217 42.3261V42H32.4348V42.3261C32.4348 42.5061 32.5809 42.6522 32.7609 42.6522H34.0652C34.2452 42.6522 34.3913 42.5061 34.3913 42.3261V42V41.3478V39.3913V38.7391V38.6372L34.3505 38.5353L33.8614 37.0272C33.6847 36.4956 33.1767 36.1304 32.6182 36.1304H28.3383ZM28.3383 37.4348H32.6182L33.0666 38.7391H27.8899L28.3383 37.4348ZM38.1209 38.087C37.948 38.1113 37.7917 38.2033 37.6866 38.3428C37.5815 38.4823 37.5361 38.6579 37.5605 38.8308C37.5848 39.0038 37.6768 39.16 37.8163 39.2651C37.9558 39.3702 38.1314 39.4156 38.3043 39.3913H47.4348C47.5212 39.3925 47.607 39.3766 47.6872 39.3443C47.7674 39.3121 47.8404 39.2643 47.9019 39.2036C47.9635 39.1429 48.0124 39.0706 48.0457 38.9909C48.0791 38.9111 48.0962 38.8256 48.0962 38.7391C48.0962 38.6527 48.0791 38.5671 48.0457 38.4874C48.0124 38.4077 47.9635 38.3354 47.9019 38.2747C47.8404 38.214 47.7674 38.1662 47.6872 38.1339C47.607 38.1017 47.5212 38.0857 47.4348 38.087H38.3043C38.284 38.086 38.2636 38.086 38.2432 38.087C38.2228 38.086 38.2024 38.086 38.1821 38.087C38.1617 38.086 38.1413 38.086 38.1209 38.087ZM27.8696 40.0435C28.2296 40.0435 28.5217 40.3357 28.5217 40.6957C28.5217 41.0557 28.2296 41.3478 27.8696 41.3478C27.5096 41.3478 27.2174 41.0557 27.2174 40.6957C27.2174 40.3357 27.5096 40.0435 27.8696 40.0435ZM33.087 40.0435C33.447 40.0435 33.7391 40.3357 33.7391 40.6957C33.7391 41.0557 33.447 41.3478 33.087 41.3478C32.727 41.3478 32.4348 41.0557 32.4348 40.6957C32.4348 40.3357 32.727 40.0435 33.087 40.0435ZM38.1209 40.6957C37.948 40.72 37.7917 40.812 37.6866 40.9515C37.5815 41.091 37.5361 41.2666 37.5605 41.4395C37.5848 41.6125 37.6768 41.7687 37.8163 41.8738C37.9558 41.9789 38.1314 42.0243 38.3043 42H45.4783C45.5647 42.0012 45.6505 41.9853 45.7307 41.953C45.8109 41.9208 45.8839 41.873 45.9454 41.8123C46.007 41.7516 46.0558 41.6793 46.0892 41.5996C46.1225 41.5198 46.1397 41.4343 46.1397 41.3478C46.1397 41.2614 46.1225 41.1758 46.0892 41.0961C46.0558 41.0164 46.007 40.9441 45.9454 40.8834C45.8839 40.8227 45.8109 40.7748 45.7307 40.7426C45.6505 40.7104 45.5647 40.6944 45.4783 40.6957H38.3043C38.284 40.6947 38.2636 40.6947 38.2432 40.6957C38.2228 40.6947 38.2024 40.6947 38.1821 40.6957C38.1617 40.6947 38.1413 40.6947 38.1209 40.6957Z" fill="white"/>
</svg>
