<svg width="19" height="18" viewBox="0 0 19 18" fill="none" xmlns="http://www.w3.org/2000/svg">
<path opacity="0.4" d="M12.8661 1.5H15.4055C16.4572 1.5 17.3094 2.35939 17.3094 3.41997V5.98089C17.3094 7.04148 16.4572 7.90087 15.4055 7.90087H12.8661C11.8143 7.90087 10.9622 7.04148 10.9622 5.98089V3.41997C10.9622 2.35939 11.8143 1.5 12.8661 1.5Z" fill="#5C5CAD"/>
<path fill-rule="evenodd" clip-rule="evenodd" d="M4.21322 1.5H6.75269C7.8044 1.5 8.65659 2.35939 8.65659 3.41997V5.98089C8.65659 7.04148 7.8044 7.90087 6.75269 7.90087H4.21322C3.16152 7.90087 2.30933 7.04148 2.30933 5.98089V3.41997C2.30933 2.35939 3.16152 1.5 4.21322 1.5ZM4.21322 10.0991H6.75269C7.8044 10.0991 8.65659 10.9585 8.65659 12.0191V14.58C8.65659 15.6399 7.8044 16.5 6.75269 16.5H4.21322C3.16152 16.5 2.30933 15.6399 2.30933 14.58V12.0191C2.30933 10.9585 3.16152 10.0991 4.21322 10.0991ZM15.4054 10.0991H12.866C11.8143 10.0991 10.9621 10.9585 10.9621 12.0191V14.58C10.9621 15.6399 11.8143 16.5 12.866 16.5H15.4054C16.4571 16.5 17.3093 15.6399 17.3093 14.58V12.0191C17.3093 10.9585 16.4571 10.0991 15.4054 10.0991Z" fill="#5C5CAD"/>
</svg>
