<svg width="18" height="18" viewBox="0 0 18 18" fill="none" xmlns="http://www.w3.org/2000/svg">
<path d="M5.10755 15.768C6.25308 16.4287 7.5822 16.8067 8.99961 16.8067C13.3084 16.8067 16.8016 13.3138 16.8016 9.00505C16.8016 4.6963 13.3087 1.20337 8.99992 1.20337C4.69117 1.20337 1.19824 4.6963 1.19824 9.00505C1.19824 10.4224 1.57623 11.7516 2.2369 12.8971L2.23946 12.9015C2.30303 13.0118 2.33508 13.0673 2.3496 13.1199C2.3633 13.1694 2.36712 13.214 2.36362 13.2652C2.35985 13.3203 2.34128 13.3775 2.3032 13.4917L1.63675 15.4911L1.63591 15.4937C1.49529 15.9155 1.42499 16.1265 1.4751 16.267C1.5188 16.3895 1.61579 16.4862 1.73833 16.5299C1.87856 16.58 2.08854 16.51 2.50853 16.37L2.51376 16.368L4.51313 15.7016C4.62697 15.6636 4.68484 15.6444 4.73985 15.6406C4.79113 15.6371 4.83536 15.6417 4.88491 15.6554C4.93757 15.67 4.99318 15.7021 5.10396 15.766L5.10755 15.768Z" stroke="#393949" stroke-width="2" stroke-linecap="round" stroke-linejoin="round"/>
</svg>
