<svg width="42" height="42" viewBox="0 0 42 42" fill="none" xmlns="http://www.w3.org/2000/svg">
<path d="M21 24.5V19.25M21 19.25V14M21 19.25H15.75M21 19.25H26.25M12.4662 32.7271L9.79932 34.8606C8.34302 36.0256 7.61451 36.6084 7.00171 36.6091C6.46876 36.6096 5.96478 36.3673 5.6323 35.9508C5.25 35.4719 5.25 34.5396 5.25 32.6746V12.6003C5.25 10.6402 5.25 9.65934 5.63148 8.91064C5.96703 8.25208 6.50208 7.71703 7.16064 7.38148C7.90934 7 8.89016 7 10.8503 7H31.1503C33.1105 7 34.0901 7 34.8388 7.38148C35.4974 7.71703 36.0333 8.25208 36.3689 8.91064C36.75 9.6586 36.75 10.6382 36.75 12.5946V25.9063C36.75 27.8626 36.75 28.8408 36.3689 29.5888C36.0333 30.2474 35.4976 30.7833 34.839 31.1189C34.0911 31.5 33.1126 31.5 31.1563 31.5H15.9645C15.2364 31.5 14.872 31.5 14.5238 31.5715C14.2149 31.6349 13.9163 31.7393 13.6354 31.8828C13.3201 32.0439 13.0369 32.2705 12.4726 32.7219L12.4662 32.7271Z" stroke="white" stroke-width="2" stroke-linecap="round" stroke-linejoin="round"/>
</svg>
