<svg width="23" height="23" viewBox="0 0 23 23" fill="none" xmlns="http://www.w3.org/2000/svg">
<path d="M6.92542 18.3859C8.14408 19.0887 9.55803 19.4908 11.0659 19.4908C15.6497 19.4908 19.3659 15.775 19.3659 11.1912C19.3659 6.60747 15.65 2.8916 11.0662 2.8916C6.48247 2.8916 2.7666 6.60747 2.7666 11.1912C2.7666 12.6991 3.16871 14.1131 3.87155 15.3317L3.87427 15.3364C3.9419 15.4537 3.976 15.5128 3.99145 15.5687C4.00602 15.6214 4.01009 15.6688 4.00636 15.7233C4.00235 15.782 3.98259 15.8427 3.94209 15.9642L3.2331 18.0912L3.2322 18.094C3.08261 18.5428 3.00782 18.7672 3.06113 18.9167C3.10762 19.047 3.2108 19.1499 3.34116 19.1964C3.49034 19.2496 3.71372 19.1752 4.16052 19.0262L4.16608 19.0242L6.29307 18.3152C6.41417 18.2748 6.47574 18.2543 6.53426 18.2503C6.58881 18.2466 6.63587 18.2515 6.68857 18.2661C6.7446 18.2816 6.80376 18.3157 6.92161 18.3837L6.92542 18.3859Z" stroke="white" stroke-width="2" stroke-linecap="round" stroke-linejoin="round"/>
</svg>
