<svg width="31" height="30" viewBox="0 0 31 30" fill="none" xmlns="http://www.w3.org/2000/svg">
<path d="M4.25 15C4.25 21.2132 9.2868 26.25 15.5 26.25C21.7132 26.25 26.75 21.2132 26.75 15C26.75 8.7868 21.7132 3.75 15.5 3.75C9.2868 3.75 4.25 8.7868 4.25 15Z" fill="#5C5CAD"/>
<path d="M15.5 10.5627V15.5627M15.5 26.25C9.2868 26.25 4.25 21.2132 4.25 15C4.25 8.7868 9.2868 3.75 15.5 3.75C21.7132 3.75 26.75 8.7868 26.75 15C26.75 21.2132 21.7132 26.25 15.5 26.25ZM15.5623 19.3127V19.4377L15.4377 19.4373V19.3127H15.5623Z" stroke="#D6D6EB" stroke-width="2" stroke-linecap="round" stroke-linejoin="round"/>
</svg>
