<svg width="48" height="49" viewBox="0 0 48 49" fill="none" xmlns="http://www.w3.org/2000/svg">
<path d="M17.5996 32.5707L19.1236 31.3516L19.1348 31.343C19.4525 31.0888 19.6128 30.9605 19.7917 30.8691C19.9522 30.7872 20.1233 30.7275 20.2998 30.6912C20.4988 30.6504 20.706 30.6504 21.1221 30.6504H29.8031C30.921 30.6504 31.4806 30.6504 31.908 30.4326C32.2843 30.2409 32.5905 29.9346 32.7822 29.5583C33 29.1309 33 28.5719 33 27.454V19.8473C33 18.7294 33 18.1696 32.7822 17.7422C32.5905 17.3659 32.2837 17.0601 31.9074 16.8684C31.4796 16.6504 30.9203 16.6504 29.8002 16.6504H18.2002C17.0801 16.6504 16.5196 16.6504 16.0918 16.8684C15.7155 17.0601 15.4097 17.3659 15.218 17.7422C15 18.17 15 18.7305 15 19.8506V31.3216C15 32.3873 15 32.92 15.2185 33.1937C15.4084 33.4317 15.6964 33.5702 16.001 33.5699C16.3512 33.5695 16.7674 33.2365 17.5996 32.5707Z" stroke="#333399" stroke-width="2" stroke-linecap="round" stroke-linejoin="round"/>
</svg>
