<svg width="18" height="14" viewBox="0 0 18 14" fill="none" xmlns="http://www.w3.org/2000/svg">
<path d="M1.15155 3.8335V10.1668C1.15155 11.1002 1.15155 11.5667 1.33321 11.9232C1.493 12.2368 1.74778 12.4921 2.06138 12.6519C2.41755 12.8333 2.88405 12.8333 3.81564 12.8333H13.4875C14.4191 12.8333 14.8849 12.8333 15.241 12.6519C15.5547 12.4921 15.8103 12.2368 15.9701 11.9232C16.1516 11.5671 16.1516 11.1012 16.1516 10.1696V3.83076C16.1516 2.89916 16.1516 2.43267 15.9701 2.0765C15.8103 1.76289 15.5547 1.50811 15.241 1.34832C14.8845 1.16667 14.4185 1.16667 13.485 1.16667H3.81838C2.88496 1.16667 2.4179 1.16667 2.06138 1.34832C1.74778 1.50811 1.493 1.76289 1.33321 2.0765C1.15155 2.43302 1.15155 2.90008 1.15155 3.8335Z" fill="white"/>
<path d="M2.40155 2.41667L7.07458 5.84356L7.07628 5.84496C7.64142 6.2594 7.92416 6.46675 8.23385 6.54685C8.50757 6.61764 8.79531 6.61764 9.06903 6.54685C9.37899 6.46668 9.66255 6.25873 10.2287 5.84356L14.9017 2.41667M1.15155 10.1668V3.8335C1.15155 2.90008 1.15155 2.43302 1.33321 2.0765C1.493 1.76289 1.74778 1.50811 2.06138 1.34832C2.4179 1.16667 2.88496 1.16667 3.81838 1.16667H13.485C14.4185 1.16667 14.8845 1.16667 15.241 1.34832C15.5546 1.50811 15.8103 1.76289 15.9701 2.0765C16.1515 2.43267 16.1515 2.89916 16.1515 3.83076V10.1696C16.1515 11.1012 16.1515 11.5671 15.9701 11.9232C15.8103 12.2368 15.5546 12.4921 15.241 12.6519C14.8849 12.8333 14.4191 12.8333 13.4875 12.8333H3.81564C2.88405 12.8333 2.41755 12.8333 2.06138 12.6519C1.74778 12.4921 1.493 12.2368 1.33321 11.9232C1.15155 11.5667 1.15155 11.1003 1.15155 10.1668Z" stroke="#7171B8" stroke-width="2" stroke-linecap="round" stroke-linejoin="round"/>
</svg>
