<svg width="35" height="35" viewBox="0 0 35 35" fill="none" xmlns="http://www.w3.org/2000/svg">
<path d="M13.1253 24.7917H21.8753M13.1253 20.4167H21.8753M18.9592 4.37627C18.8199 4.375 18.6632 4.375 18.4843 4.375H11.9589C10.3255 4.375 9.50811 4.375 8.8842 4.6929C8.33539 4.97253 7.88952 5.4184 7.60989 5.9672C7.29199 6.59111 7.29199 7.40846 7.29199 9.04195V25.9586C7.29199 27.5921 7.29199 28.4084 7.60989 29.0323C7.88952 29.5811 8.33539 30.0278 8.8842 30.3074C9.5075 30.625 10.3239 30.625 11.9542 30.625L23.0465 30.625C24.6768 30.625 25.492 30.625 26.1153 30.3074C26.6641 30.0278 27.1114 29.5811 27.3911 29.0323C27.7087 28.409 27.7087 27.5938 27.7087 25.9636V13.6C27.7087 13.4211 27.7085 13.2643 27.7072 13.125M18.9592 4.37627C19.3755 4.38007 19.6378 4.39551 19.8893 4.45589C20.1869 4.52734 20.4722 4.64518 20.7332 4.80509C21.0274 4.98541 21.2801 5.23806 21.7842 5.74219L26.3422 10.3002C26.8466 10.8046 27.0974 11.0562 27.2778 11.3505C27.4377 11.6115 27.556 11.896 27.6275 12.1936C27.6879 12.4451 27.7034 12.7087 27.7072 13.125M18.9592 4.37627L18.9587 8.45864C18.9587 10.0921 18.9587 10.9086 19.2766 11.5325C19.5562 12.0813 20.0021 12.5278 20.5509 12.8074C21.1742 13.125 21.9905 13.125 23.6208 13.125H27.7072" stroke="white" stroke-width="2" stroke-linecap="round" stroke-linejoin="round"/>
</svg>
