<svg width="35" height="35" viewBox="0 0 35 35" fill="none" xmlns="http://www.w3.org/2000/svg">
<circle cx="17.5" cy="17.5" r="17.5" fill="#333399"/>
<rect width="25.7956" height="25.7956" transform="translate(4.60547 4.60645)" fill="#333399"/>
<path d="M14.279 11.0553H14.641C14.9039 11.0553 15.0355 11.0553 15.1592 11.085C15.2688 11.1113 15.3741 11.1548 15.4703 11.2137C15.5787 11.2802 15.6718 11.3733 15.8576 11.5591L19.1495 14.851C19.3354 15.0368 19.4278 15.1293 19.4943 15.2377C19.5532 15.3339 19.5973 15.439 19.6237 15.5487C19.653 15.6711 19.653 15.8011 19.653 16.0587V23.953M14.279 11.0553H9.54936C8.94741 11.0553 8.64673 11.0553 8.41682 11.1724C8.21458 11.2754 8.05027 11.4398 7.94723 11.642C7.83008 11.8719 7.83008 12.1731 7.83008 12.7751V25.4579C7.83008 26.0598 7.83008 26.3604 7.94723 26.5903C8.05027 26.7925 8.21458 26.9574 8.41682 27.0604C8.64651 27.1775 8.94683 27.1775 9.54763 27.1775L17.9345 27.1775C18.5353 27.1775 18.8367 27.1775 19.0664 27.0604C19.2686 26.9574 19.4324 26.7928 19.5355 26.5906C19.6526 26.3607 19.653 26.0596 19.653 25.4576V23.953M14.279 11.0553V14.7096C14.279 15.3116 14.279 15.6123 14.3961 15.8423C14.4992 16.0445 14.6635 16.2093 14.8657 16.3123C15.0954 16.4293 15.3957 16.4293 15.9965 16.4293H19.6526M15.3538 11.0554V9.55062C15.3538 8.94867 15.3538 8.64747 15.4709 8.41755C15.574 8.21531 15.7383 8.051 15.9405 7.94796C16.1704 7.83081 16.4711 7.83081 17.0731 7.83081H21.8027M21.8027 7.83081H22.1647C22.4276 7.83081 22.5592 7.83081 22.6829 7.86051C22.7925 7.88684 22.8978 7.93037 22.994 7.9893C23.1024 8.05575 23.1955 8.14887 23.3813 8.33463L26.6732 11.6265C26.8591 11.8124 26.9515 11.9048 27.018 12.0133C27.0769 12.1095 27.121 12.2146 27.1474 12.3243C27.1768 12.4467 27.1768 12.5767 27.1767 12.8342V22.2332C27.1767 22.8351 27.1763 23.1362 27.0592 23.3661C26.9561 23.5684 26.793 23.733 26.5907 23.836C26.361 23.953 26.06 23.953 25.4592 23.953H19.653M21.8027 7.83081V11.4852C21.8027 12.0871 21.8027 12.3879 21.9198 12.6178C22.0229 12.8201 22.1872 12.9848 22.3894 13.0879C22.6191 13.2049 22.9194 13.2049 23.5202 13.2049H27.1763" stroke="white" stroke-width="2" stroke-linecap="round" stroke-linejoin="round"/>
</svg>
