<svg width="49" height="46" viewBox="0 0 49 46" fill="none" xmlns="http://www.w3.org/2000/svg">
<ellipse cx="24.0086" cy="22.7906" rx="24.0086" ry="22.7906" fill="#333399"/>
<path d="M24.2452 18.5185V23.8095M35.3927 21.3824C35.3927 30.0705 28.47 33.9657 25.5352 35.2267L25.5315 35.2283C25.2229 35.3609 25.0681 35.4274 24.7174 35.4845C24.4953 35.5207 23.9965 35.5207 23.7744 35.4845C23.4223 35.4271 23.2659 35.3604 22.9548 35.2267C20.02 33.9657 13.0977 30.0705 13.0977 21.3823V16.1378C13.0977 14.6562 13.0977 13.9149 13.4014 13.349C13.6686 12.8512 14.0946 12.4468 14.619 12.1931C15.2152 11.9048 15.9961 11.9048 17.5569 11.9048H30.934C32.4948 11.9048 33.2741 11.9048 33.8703 12.1931C34.3946 12.4468 34.8221 12.8512 35.0893 13.349C35.3927 13.9143 35.3927 14.6548 35.3927 16.1335V21.3824ZM24.3146 27.7778V27.9101L24.1758 27.9103V27.7778H24.3146Z" stroke="white" stroke-width="2" stroke-linecap="round" stroke-linejoin="round"/>
</svg>
