<svg width="48" height="49" viewBox="0 0 48 49" fill="none" xmlns="http://www.w3.org/2000/svg">
<path d="M26 30.7871H33M15 30.7871H17M17 30.7871C17 32.1678 18.1193 33.2871 19.5 33.2871C20.8807 33.2871 22 32.1678 22 30.7871C22 29.4064 20.8807 28.2871 19.5 28.2871C18.1193 28.2871 17 29.4064 17 30.7871ZM32 24.7871H33M15 24.7871H22M25 18.7871H33M25 18.7871C25 17.4064 23.8807 16.2871 22.5 16.2871C21.1193 16.2871 20 17.4064 20 18.7871C20 20.1678 21.1193 21.2871 22.5 21.2871C23.8807 21.2871 25 20.1678 25 18.7871ZM15 18.7871H16M28.5 27.2871C27.1193 27.2871 26 26.1678 26 24.7871C26 23.4064 27.1193 22.2871 28.5 22.2871C29.8807 22.2871 31 23.4064 31 24.7871C31 26.1678 29.8807 27.2871 28.5 27.2871Z" stroke="#333399" stroke-width="2" stroke-linecap="round" stroke-linejoin="round"/>
</svg>
