<svg width="17" height="18" viewBox="0 0 17 18" fill="none" xmlns="http://www.w3.org/2000/svg">
<path d="M1.98489 13.8335V9.16683C1.98489 8.23341 1.98489 7.76635 2.16655 7.40983C2.32634 7.09623 2.58112 6.84144 2.89472 6.68166C3.25124 6.5 3.7183 6.5 4.65172 6.5H6.34362C6.23741 6.5 6.15156 6.4139 6.15156 6.30769V4C6.15156 2.61929 7.27085 1.5 8.65156 1.5C10.0323 1.5 11.1516 2.61929 11.1516 4V6.30769C11.1516 6.4139 11.0652 6.5 10.959 6.5H12.6517C13.5851 6.5 14.0512 6.5 14.4077 6.68166C14.7213 6.84144 14.977 7.09623 15.1367 7.40983C15.3182 7.766 15.3182 8.23249 15.3182 9.16409V13.8363C15.3182 14.7679 15.3182 15.2337 15.1367 15.5899C14.977 15.9035 14.7213 16.1587 14.4077 16.3185C14.0516 16.5 13.5857 16.5 12.6541 16.5H4.64901C3.71741 16.5 3.2509 16.5 2.89472 16.3185C2.58112 16.1587 2.32634 15.9035 2.16655 15.5899C1.98489 15.2334 1.98489 14.7669 1.98489 13.8335Z" fill="white"/>
<path d="M6.34362 6.5H4.65172C3.7183 6.5 3.25124 6.5 2.89472 6.68166C2.58112 6.84144 2.32634 7.09623 2.16655 7.40983C1.98489 7.76635 1.98489 8.23341 1.98489 9.16683V13.8335C1.98489 14.7669 1.98489 15.2334 2.16655 15.5899C2.32634 15.9035 2.58112 16.1587 2.89472 16.3185C3.2509 16.5 3.71741 16.5 4.64901 16.5H12.6541C13.5857 16.5 14.0516 16.5 14.4077 16.3185C14.7213 16.1587 14.977 15.9035 15.1367 15.5899C15.3182 15.2337 15.3182 14.7679 15.3182 13.8363V9.16409C15.3182 8.23249 15.3182 7.766 15.1367 7.40983C14.977 7.09623 14.7213 6.84144 14.4077 6.68166C14.0512 6.5 13.5851 6.5 12.6517 6.5H10.959M6.34362 6.5H10.959M6.34362 6.5C6.23741 6.5 6.15156 6.4139 6.15156 6.30769V4C6.15156 2.61929 7.27085 1.5 8.65156 1.5C10.0323 1.5 11.1516 2.61929 11.1516 4V6.30769C11.1516 6.4139 11.0652 6.5 10.959 6.5" stroke="#7171B8" stroke-width="2" stroke-linecap="round" stroke-linejoin="round"/>
</svg>
