<svg width="48" height="49" viewBox="0 0 48 49" fill="none" xmlns="http://www.w3.org/2000/svg">
<rect y="0.650391" width="48" height="48" rx="8" fill="#4848A4"/>
<path d="M20 24.6504H24M24 24.6504H28M24 24.6504V28.6504M24 24.6504V20.6504M16 29.4506V19.8506C16 18.7305 16 18.17 16.218 17.7422C16.4097 17.3659 16.7155 17.0601 17.0918 16.8684C17.5196 16.6504 18.0801 16.6504 19.2002 16.6504H28.8002C29.9203 16.6504 30.4801 16.6504 30.9079 16.8684C31.2842 17.0601 31.5905 17.3659 31.7822 17.7422C32.0002 18.17 32.0002 18.7301 32.0002 19.8502V29.4502C32.0002 30.5703 32.0002 31.1304 31.7822 31.5582C31.5905 31.9345 31.2842 32.2409 30.9079 32.4326C30.4805 32.6504 29.9215 32.6504 28.8036 32.6504H19.1969C18.079 32.6504 17.5192 32.6504 17.0918 32.4326C16.7155 32.2409 16.4097 31.9346 16.218 31.5583C16 31.1305 16 30.5707 16 29.4506Z" stroke="white" stroke-width="2" stroke-linecap="round" stroke-linejoin="round"/>
</svg>
