<svg width="35" height="35" viewBox="0 0 35 35" fill="none" xmlns="http://www.w3.org/2000/svg">
<circle cx="17.5" cy="17.5" r="17.5" fill="#333399"/>
<rect width="25.7956" height="25.7956" transform="translate(4.60547 4.60645)" fill="#333399"/>
<path d="M22.8775 26.1027C22.8775 24.3219 20.4714 22.8782 17.5034 22.8782C14.5354 22.8782 12.1293 24.3219 12.1293 26.1027M27.1767 22.8787C27.1767 21.5564 25.8503 20.4201 23.9523 19.9225M7.83008 22.8787C7.83008 21.5564 9.1565 20.4201 11.0545 19.9225M23.9523 15.6083C24.612 15.0179 25.0271 14.1599 25.0271 13.2049C25.0271 11.4241 23.5835 9.98047 21.8027 9.98047C20.9768 9.98047 20.2235 10.2909 19.653 10.8015M11.0545 15.6083C10.3949 15.0179 9.97971 14.1599 9.97971 13.2049C9.97971 11.4241 11.4233 9.98047 13.2042 9.98047C14.03 9.98047 14.7833 10.2909 15.3538 10.8015M17.5034 19.6538C15.7226 19.6538 14.279 18.2102 14.279 16.4294C14.279 14.6485 15.7226 13.2049 17.5034 13.2049C19.2842 13.2049 20.7279 14.6485 20.7279 16.4294C20.7279 18.2102 19.2842 19.6538 17.5034 19.6538Z" stroke="white" stroke-width="2" stroke-linecap="round" stroke-linejoin="round"/>
</svg>
