<svg width="25" height="24" viewBox="0 0 25 24" fill="none" xmlns="http://www.w3.org/2000/svg">
<path d="M21.324 9.22822L15.2723 3.176C15.1877 3.09187 15.0801 3.03463 14.963 3.01149C14.846 2.98835 14.7247 3.00033 14.6144 3.04593C14.5041 3.09153 14.4098 3.16871 14.3433 3.26777C14.2768 3.36683 14.241 3.48335 14.2405 3.60268V5.36993L8.331 8.74707H5.46552C5.3462 8.74757 5.22969 8.78333 5.13063 8.84987C5.03158 8.91641 4.95441 9.01074 4.90881 9.12102C4.86322 9.2313 4.85124 9.35259 4.87438 9.46966C4.89752 9.58673 4.95475 9.69434 5.03887 9.77897L8.72436 13.4678L3.6258 20.0254C3.53754 20.1399 3.49321 20.2823 3.50084 20.4267C3.50848 20.5711 3.56757 20.7081 3.66742 20.8127C3.76727 20.9173 3.90127 20.9827 4.04516 20.997C4.18906 21.0114 4.33333 20.9737 4.45186 20.8908L11.3236 16.0672L14.7216 19.4625C14.8062 19.5466 14.9138 19.6039 15.0309 19.627C15.1479 19.6502 15.2692 19.6382 15.3795 19.5926C15.4898 19.547 15.5841 19.4698 15.6506 19.3708C15.7172 19.2717 15.7529 19.1552 15.7534 19.0358V15.8736L19.1212 10.2601H20.8974C21.0167 10.2596 21.1332 10.2239 21.2323 10.1573C21.3313 10.0908 21.4085 9.99644 21.4541 9.88617C21.4997 9.77589 21.5117 9.65459 21.4885 9.53753C21.4654 9.42046 21.4081 9.31285 21.324 9.22822ZM7.06014 17.5833L9.58976 14.3333L10.4551 15.1987L7.06014 17.5833ZM18.7793 9.04968C18.6742 9.05084 18.5712 9.07936 18.4805 9.13242C18.3897 9.18548 18.3144 9.26126 18.2619 9.35229L14.6308 15.4045C14.5754 15.4959 14.5451 15.6003 14.5431 15.7071V17.5742L6.927 9.95751H8.49137C8.59738 9.95824 8.70173 9.93111 8.79396 9.87883L15.1482 6.2475C15.2406 6.19418 15.3172 6.1174 15.3704 6.02493C15.4235 5.93247 15.4513 5.8276 15.4508 5.72096V5.06429L19.4359 9.04968H18.7793Z" fill="#46444F"/>
</svg>
