<svg width="20" height="20" viewBox="0 0 20 20" fill="none" xmlns="http://www.w3.org/2000/svg">
<rect x="0.292969" y="0.609863" width="19.0976" height="19.0976" rx="9.54878" fill="#4848A4"/>
<path d="M15.4116 16.5244H16.2073M13.0244 16.5244H11.4329V14.1372M13.8201 14.1372H16.2073V11.75H15.4116M11.4329 11.75H13.0244M3.47559 14.137C3.47559 13.3955 3.47559 13.0247 3.59673 12.7323C3.75825 12.3423 4.06786 12.0327 4.45782 11.8712C4.75028 11.75 5.12105 11.75 5.86258 11.75C6.6041 11.75 6.97528 11.75 7.26774 11.8712C7.6577 12.0327 7.96723 12.3423 8.12875 12.7323C8.24989 13.0247 8.24989 13.3957 8.24989 14.1372C8.24989 14.8788 8.24989 15.2495 8.12875 15.542C7.96723 15.9319 7.6577 16.2417 7.26774 16.4032C6.97528 16.5243 6.6041 16.5243 5.86258 16.5243C5.12105 16.5243 4.75028 16.5243 4.45782 16.4032C4.06786 16.2417 3.75825 15.9322 3.59673 15.5422C3.47559 15.2497 3.47559 14.8786 3.47559 14.137ZM11.4329 6.17971C11.4329 5.43819 11.4329 5.06742 11.554 4.77496C11.7156 4.385 12.0252 4.07539 12.4151 3.91387C12.7076 3.79272 13.0784 3.79272 13.8199 3.79272C14.5614 3.79272 14.9326 3.79272 15.2251 3.91387C15.615 4.07539 15.9245 4.385 16.0861 4.77496C16.2072 5.06742 16.2072 5.43839 16.2072 6.17992C16.2072 6.92145 16.2072 7.29221 16.0861 7.58468C15.9245 7.97463 15.615 8.28437 15.2251 8.44589C14.9326 8.56703 14.5614 8.56703 13.8199 8.56703C13.0784 8.56703 12.7076 8.56703 12.4151 8.44589C12.0252 8.28437 11.7156 7.97484 11.554 7.58488C11.4329 7.29242 11.4329 6.92124 11.4329 6.17971ZM3.47559 6.17971C3.47559 5.43819 3.47559 5.06742 3.59673 4.77496C3.75825 4.385 4.06786 4.07539 4.45782 3.91387C4.75028 3.79272 5.12105 3.79272 5.86258 3.79272C6.6041 3.79272 6.97528 3.79272 7.26774 3.91387C7.6577 4.07539 7.96723 4.385 8.12875 4.77496C8.24989 5.06742 8.24989 5.43839 8.24989 6.17992C8.24989 6.92145 8.24989 7.29221 8.12875 7.58468C7.96723 7.97463 7.6577 8.28437 7.26774 8.44589C6.97528 8.56703 6.6041 8.56703 5.86258 8.56703C5.12105 8.56703 4.75028 8.56703 4.45782 8.44589C4.06786 8.28437 3.75825 7.97484 3.59673 7.58488C3.47559 7.29242 3.47559 6.92124 3.47559 6.17971Z" stroke="white" stroke-width="2" stroke-linecap="round" stroke-linejoin="round"/>
</svg>
