<svg width="48" height="49" viewBox="0 0 48 49" fill="none" xmlns="http://www.w3.org/2000/svg">
<g clip-path="url(#clip0_4151_201356)">
<path d="M14 17.9906C16.6193 14.6353 19.7208 12.5084 24 12.6556C28.132 12.7978 31.5127 14.4069 33.9949 17.8536C33.9949 16.615 33.9848 15.3764 34 14.1379C34 13.8333 34 13.4627 34.1574 13.2394C34.3503 12.9703 34.7157 12.6607 35.0051 12.6607C35.2944 12.6607 35.6345 12.9805 35.8477 13.2495C35.9949 13.4323 35.9898 13.7622 35.9898 14.0313C35.9949 20.4221 35.9898 26.813 36 33.2089C36 34.0363 35.6853 34.5693 34.9036 34.8942C32.7513 35.7825 30.4924 36.2394 28.198 36.5236C23.8782 37.0566 19.599 36.8079 15.3909 35.6708C14.5533 35.4424 13.7411 35.1074 12.9289 34.7978C12.2944 34.5439 12 34.0668 12 33.3815C12 26.9094 12 20.4323 12.0102 13.9551C12.0102 13.6759 12.0558 13.3358 12.2183 13.1277C12.401 12.8993 12.7411 12.6505 13.0102 12.6505C13.2792 12.6505 13.6294 12.8891 13.797 13.1277C13.9594 13.3561 13.9848 13.7165 13.9898 14.0211C14.0102 15.2851 14 16.5541 14 17.9856V17.9906ZM14 28.1506C13.9695 28.1506 14.0305 28.2952 14 28.2952C14 29.7318 14.0203 31.1683 13.9898 32.6049C13.9797 33.0922 14.1624 33.2952 14.5939 33.4475C16.5431 34.1531 18.5685 34.5592 20.6244 34.6505C22.868 34.7571 25.1168 34.747 27.3604 34.6505C29.4619 34.5592 31.5228 34.1379 33.5127 33.4018C33.8833 33.2648 34.0051 33.0769 34.0051 32.681C33.9848 29.9348 34.0203 27.1835 33.9797 24.4373C33.9695 23.6556 33.8477 22.8587 33.6599 22.0972C32.4416 17.2597 27.802 14.0617 22.8528 14.6455C18.4112 15.1683 14.6599 18.6607 14.132 23.1176C13.9289 24.8181 14 26.4247 14 28.1506Z" fill="#333399"/>
<path d="M28.7313 22.5489C27.1729 22.5337 25.6095 22.5489 24.0511 22.5489V22.5438C22.4673 22.5438 20.8887 22.5235 19.3049 22.5489C17.4217 22.5794 16.0612 23.7519 16.0003 25.356C15.9343 27.0616 17.3049 28.4981 19.1628 28.5235C22.4115 28.5743 25.6602 28.5743 28.9039 28.5235C30.6653 28.4981 32.0511 27.0311 31.9953 25.4118C31.9343 23.8027 30.5486 22.5743 28.7313 22.5489Z" fill="#333399"/>
</g>
<defs>
<clipPath id="clip0_4151_201356">
<rect width="24" height="24.1371" fill="white" transform="translate(12 12.6504)"/>
</clipPath>
</defs>
</svg>
