<svg width="22" height="22" viewBox="0 0 22 22" fill="none" xmlns="http://www.w3.org/2000/svg">
<g clip-path="url(#clip0_4013_204149)">
<path d="M5.00791 4.06359C6.67126 2.62228 8.79923 1.83027 11.0002 1.83334C16.0629 1.83334 20.1668 5.93725 20.1668 11C20.1668 12.958 19.5527 14.773 18.5077 16.2617L15.5835 11H18.3335C18.3336 9.56233 17.9111 8.15632 17.1186 6.95682C16.3261 5.75732 15.1984 4.81723 13.8759 4.25345C12.5534 3.68967 11.0943 3.52706 9.68012 3.78585C8.26593 4.04464 6.959 4.71341 5.92183 5.709L5.00791 4.06359ZM16.9924 17.9364C15.3291 19.3777 13.2011 20.1697 11.0002 20.1667C5.93741 20.1667 1.8335 16.0628 1.8335 11C1.8335 9.042 2.44766 7.227 3.49266 5.73834L6.41683 11H3.66683C3.66671 12.4377 4.08919 13.8437 4.88172 15.0432C5.67426 16.2427 6.80189 17.1828 8.12441 17.7466C9.44694 18.3103 10.906 18.4729 12.3202 18.2142C13.7344 17.9554 15.0413 17.2866 16.0785 16.291L16.9924 17.9364Z" fill="#A6A9B3"/>
</g>
<defs>
<clipPath id="clip0_4013_204149">
<rect width="22" height="22" fill="white"/>
</clipPath>
</defs>
</svg>
