<svg width="48" height="48" viewBox="0 0 48 48" fill="none" xmlns="http://www.w3.org/2000/svg">
<g clip-path="url(#clip0_4151_201337)">
<path d="M6.60505 0H47.7997V47.3294H6.60505C2.95884 47.3294 0 44.3997 0 40.7893V6.54006C0 2.92973 2.95884 0 6.60505 0Z" fill="#FF3366"/>
<path d="M23.3352 13.9482H23.3234C22.3911 13.9561 21.4193 13.9561 20.4317 13.9482H20.4238C19.9813 13.9482 19.7562 14.1712 19.7443 14.6132C19.7246 15.5402 19.7246 16.5181 19.7443 17.5273C19.7522 17.9654 19.9813 18.1844 20.4238 18.1844H23.3431C23.8132 18.1844 24.0423 17.9576 24.0502 17.496C24.0621 16.3969 24.0621 15.4894 24.0502 14.6367C24.0423 14.1751 23.8093 13.9482 23.3392 13.9482H23.3352V13.9482ZM22.7269 16.8741H21.0953V15.2547H22.7269V16.8741Z" fill="white"/>
<path d="M29.4189 15.4341C28.3957 15.4146 27.3647 15.4185 26.3613 15.4341C25.9781 15.442 25.7529 15.6767 25.7569 16.06C25.7569 16.4668 25.99 16.6936 26.4087 16.6976H29.3557C29.7902 16.6976 30.0194 16.4903 30.0391 16.0913C30.047 15.8879 29.9957 15.7197 29.889 15.6062C29.7823 15.4928 29.6204 15.4341 29.4189 15.4302V15.4341Z" fill="white"/>
<path d="M14.545 21.2119H29.5169C29.9515 21.2119 30.307 21.5639 30.307 21.9942C30.307 22.4245 29.9515 22.7765 29.5169 22.7765H14.545C14.1104 22.7765 13.7549 22.4245 13.7549 21.9942C13.7549 21.5639 14.1104 21.2119 14.545 21.2119Z" fill="white"/>
<path d="M11.168 25.5146H29.5176C29.9521 25.5146 30.3077 25.8667 30.3077 26.297C30.3077 26.7272 29.9521 27.0793 29.5176 27.0793H11.168C10.7335 27.0793 10.3779 26.7272 10.3779 26.297C10.3779 25.8667 10.7335 25.5146 11.168 25.5146Z" fill="white"/>
<path d="M7.79008 29.8174H29.5172C29.9518 29.8174 30.3073 30.1694 30.3073 30.5997C30.3073 31.03 29.9518 31.382 29.5172 31.382H7.79008C7.35554 31.382 7 31.03 7 30.5997C7 30.1694 7.35554 29.8174 7.79008 29.8174Z" fill="white"/>
<path d="M35.8375 13.8816C35.8375 11.1905 33.6253 9 30.9074 9H19.0404C16.3226 9 14.1104 11.1905 14.1104 13.8816V17.7931C14.1104 18.286 14.5133 18.6849 15.011 18.6849C15.5088 18.6849 15.9117 18.286 15.9117 17.7931V13.8816C15.9117 12.1762 17.3141 10.7876 19.0365 10.7876H30.9035C32.6258 10.7876 34.0282 12.1762 34.0282 13.8816V31.6712C34.0282 33.3766 32.6258 34.7652 30.9035 34.7652H19.0365C17.9225 34.7652 16.8835 34.1667 16.3265 33.2045C16.1606 32.919 15.8604 32.7429 15.5404 32.7429C15.2204 32.7429 14.9281 32.9072 14.7661 33.1849C14.6002 33.4705 14.6002 33.8108 14.7661 34.1002C15.6431 35.614 17.2786 36.5528 19.0325 36.5528H30.8995C33.6174 36.5528 35.8296 34.3623 35.8296 31.6712V13.8816H35.8375Z" fill="white"/>
</g>
<defs>
<clipPath id="clip0_4151_201337">
<rect width="47.7997" height="47.3294" fill="white"/>
</clipPath>
</defs>
</svg>
