<svg width="108" height="43" viewBox="0 0 108 43" fill="none" xmlns="http://www.w3.org/2000/svg">
<g clip-path="url(#clip0_4153_201371)">
<path d="M75.069 28.8635V41.7661C75.069 41.9396 74.9301 42.0772 74.7614 42.0772H72.0395C71.8709 42.0772 71.732 41.9363 71.732 41.7661V31.7551C71.732 31.5815 71.5931 31.444 71.4244 31.444H69.9096C69.741 31.444 69.6021 31.3032 69.6021 31.1329V28.8668C69.6021 28.6932 69.741 28.5557 69.9096 28.5557H74.7614C74.9301 28.5557 75.069 28.6965 75.069 28.8668V28.8635Z" fill="#FF3366"/>
<path d="M82.4375 25.1824V28.0904C82.4375 28.3426 82.6459 28.5489 82.9005 28.5489H85.6555C85.9102 28.5489 86.1185 28.7552 86.1185 29.0074V30.8511C86.1185 31.1032 85.9102 31.3095 85.6555 31.3095H82.9005C82.6459 31.3095 82.4375 31.5158 82.4375 31.768V36.9814C82.4375 37.5709 82.5731 38.0359 82.8443 38.3732C83.1155 38.7105 83.5223 38.8808 84.0647 38.8808C84.5376 38.8808 84.9444 38.8284 85.2851 38.7236C85.3942 38.6908 85.5001 38.6548 85.6026 38.6122C85.9102 38.4878 86.2442 38.7039 86.2442 39.0314V40.7081C86.2442 40.8358 86.1946 40.9602 86.0987 41.0454C85.7944 41.3172 85.4273 41.5464 84.9974 41.7396C84.498 41.9656 83.8729 42.0769 83.1188 42.0769C81.9282 42.0769 80.9591 41.7003 80.215 40.9439C79.4708 40.1907 79.0971 39.1526 79.0971 37.8361V31.7647C79.0971 31.5126 78.8888 31.3063 78.6341 31.3063H77.1657C76.911 31.3063 76.7026 31.0999 76.7026 30.8478V29.9243C76.7026 29.7376 76.8217 29.5739 76.9937 29.4986C77.7213 29.1842 78.3993 28.6668 79.0277 27.9463C79.6792 27.1964 80.2117 26.2271 80.6185 25.0351C80.6813 24.8484 80.8566 24.7207 81.0551 24.7207H81.9679C82.2225 24.7207 82.4309 24.927 82.4309 25.1792H82.4375V25.1824Z" fill="#FF3366"/>
<path d="M91.3575 24.0069V41.422C91.3575 41.7855 91.0466 42.0803 90.6629 42.0803H88.5661C88.1825 42.0803 87.8716 41.7855 87.8716 41.422V24.0069C87.8716 23.6434 88.1825 23.3486 88.5661 23.3486H90.6629C91.0466 23.3486 91.3575 23.6434 91.3575 24.0069Z" fill="#FF3366"/>
<path d="M99.5958 28.2113C100.892 28.2113 102.01 28.4896 102.946 29.0431C103.882 29.5998 104.6 30.3661 105.099 31.3452C105.599 32.3244 105.847 33.4575 105.847 34.7412V35.1112C105.847 35.6843 105.377 36.146 104.802 36.146H96.2323C96.4076 37.0302 96.8441 37.7408 97.5453 38.2779C98.2464 38.815 99.103 39.0835 100.122 39.0835C101.084 39.0835 101.961 38.8936 102.748 38.5104C103.3 38.2419 103.776 37.9701 104.173 37.695C104.368 37.5575 104.636 37.695 104.636 37.9308L104.616 40.2722C104.616 40.3574 104.58 40.4392 104.514 40.4949C104.097 40.8322 103.505 41.1728 102.738 41.5134C101.904 41.8867 100.992 42.0734 99.9927 42.0734C98.6797 42.0734 97.4825 41.7786 96.4076 41.1892C95.3294 40.5997 94.4728 39.7941 93.8312 38.7691C93.1929 37.7474 92.8721 36.575 92.8721 35.2586C92.8721 33.9421 93.1598 32.8058 93.7386 31.748C94.3174 30.6903 95.1144 29.8356 96.1298 29.1839C97.1451 28.5322 98.3027 28.208 99.5991 28.208H99.5958V28.2113ZM99.5164 31.116C98.6929 31.116 98.0017 31.3682 97.4395 31.8692C96.8772 32.3735 96.4936 33.0481 96.2819 33.8995H102.639C102.569 32.963 102.219 32.2654 101.587 31.8037C100.955 31.3452 100.264 31.1127 99.5098 31.1127H99.5164V31.116Z" fill="#FF3366"/>
<path d="M91.3576 7.53557V20.5069C91.3576 20.7132 91.1889 20.8802 90.9805 20.8802H88.252C88.0436 20.8802 87.875 20.7132 87.875 20.5069V10.4698C87.875 10.2635 87.7063 10.0964 87.4979 10.0964H86.0328C85.8244 10.0964 85.6558 9.92942 85.6558 9.72311V7.53885C85.6558 7.33254 85.8244 7.16552 86.0328 7.16552H90.9838C91.1922 7.16552 91.3609 7.33254 91.3609 7.53885L91.3576 7.53557ZM89.3269 -0.00292969C89.985 -0.00292969 90.5539 0.229578 91.0301 0.69132C91.5064 1.15306 91.7445 1.69995 91.7445 2.33525C91.7445 2.97055 91.5064 3.49452 91.0301 3.96608C90.5539 4.43765 89.9883 4.67343 89.3269 4.67343C88.6654 4.67343 88.1065 4.43765 87.6401 3.96608C87.1738 3.49452 86.939 2.95091 86.939 2.33525C86.939 1.7196 87.1738 1.15306 87.6401 0.69132C88.1065 0.229578 88.6687 -0.00292969 89.3269 -0.00292969V-0.00292969Z" fill="#333399"/>
<path d="M55.146 13.8686C55.146 13.2333 55.2287 12.6209 55.394 12.0314C55.5594 11.442 55.7942 10.8918 56.0985 10.3809C56.4028 9.87007 56.7633 9.40833 57.1866 8.99244C57.6099 8.57654 58.0796 8.21959 58.5922 7.92486C59.1081 7.62686 59.6572 7.39763 60.2459 7.23389C60.8346 7.07015 61.4497 6.98828 62.0913 6.98828C62.733 6.98828 63.3382 7.07015 63.9302 7.23389C64.5222 7.39763 65.0745 7.63013 65.5838 7.92486C66.0965 8.22287 66.5628 8.57654 66.9861 8.99244C67.4095 9.40833 67.7733 9.87007 68.0742 10.3809C68.3785 10.8918 68.6133 11.442 68.7787 12.0314C68.9441 12.6209 69.0267 13.2333 69.0267 13.8686C69.0267 14.5039 68.9441 15.1162 68.7787 15.7024C68.6133 16.2886 68.3785 16.8355 68.0742 17.3431C67.77 17.8507 67.4095 18.3124 66.9861 18.7316C66.5628 19.1507 66.0965 19.5077 65.5838 19.8057C65.0745 20.1037 64.5222 20.3329 63.9302 20.4967C63.3382 20.6604 62.7263 20.7423 62.0913 20.7423C61.4563 20.7423 60.8346 20.6604 60.2459 20.4967C59.6572 20.3329 59.1048 20.1004 58.5922 19.8057C58.0763 19.5077 57.6099 19.1507 57.1866 18.7316C56.7633 18.3124 56.3995 17.8507 56.0985 17.3431C55.7942 16.8355 55.5594 16.2886 55.394 15.7024C55.2287 15.1162 55.146 14.5039 55.146 13.8686ZM58.1292 13.8686C58.1292 14.4285 58.2284 14.9558 58.4268 15.4568C58.6253 15.9546 58.8998 16.3901 59.2537 16.7602C59.6075 17.1302 60.0243 17.4249 60.5071 17.6411C60.99 17.8572 61.5192 17.9653 62.088 17.9653C62.6569 17.9653 63.1629 17.8572 63.6391 17.6411C64.1154 17.4249 64.5255 17.1302 64.8728 16.7602C65.2167 16.3901 65.4879 15.9546 65.6831 15.4568C65.8782 14.9558 65.9741 14.4285 65.9741 13.8686C65.9741 13.3086 65.8782 12.7879 65.6831 12.2868C65.4879 11.7825 65.22 11.3437 64.8728 10.9606C64.5288 10.5807 64.1154 10.2761 63.6391 10.0502C63.1629 9.82423 62.647 9.70961 62.088 9.70961C61.5291 9.70961 60.99 9.82423 60.5071 10.0502C60.0243 10.2761 59.6075 10.5807 59.2537 10.9606C58.8998 11.3404 58.6253 11.7825 58.4268 12.2868C58.2284 12.7912 58.1292 13.3184 58.1292 13.8686Z" fill="#333399"/>
<path d="M71.3188 13.8686C71.3188 13.2333 71.4015 12.6209 71.5669 12.0314C71.7323 11.442 71.9671 10.8918 72.2714 10.3809C72.5756 9.87007 72.9361 9.40833 73.3595 8.99244C73.7828 8.57654 74.2524 8.21959 74.7651 7.92486C75.281 7.62686 75.83 7.39763 76.4187 7.23389C77.0074 7.07015 77.6226 6.98828 78.2642 6.98828C78.9058 6.98828 79.511 7.07015 80.103 7.23389C80.6951 7.39763 81.2474 7.63013 81.7567 7.92486C82.2693 8.22287 82.7357 8.57654 83.159 8.99244C83.5823 9.40833 83.9461 9.87007 84.2471 10.3809C84.5514 10.8918 84.7862 11.442 84.9516 12.0314C85.1169 12.6209 85.1996 13.2333 85.1996 13.8686C85.1996 14.5039 85.1169 15.1162 84.9516 15.7024C84.7862 16.2886 84.5514 16.8355 84.2471 17.3431C83.9428 17.8507 83.5823 18.3124 83.159 18.7316C82.7357 19.1507 82.2693 19.5077 81.7567 19.8057C81.2474 20.1037 80.6951 20.3329 80.103 20.4967C79.511 20.6604 78.8992 20.7423 78.2642 20.7423C77.6292 20.7423 77.0074 20.6604 76.4187 20.4967C75.83 20.3329 75.2777 20.1004 74.7651 19.8057C74.2491 19.5077 73.7828 19.1507 73.3595 18.7316C72.9361 18.3124 72.5723 17.8507 72.2714 17.3431C71.9671 16.8355 71.7323 16.2886 71.5669 15.7024C71.4015 15.1162 71.3188 14.5039 71.3188 13.8686V13.8686ZM74.302 13.8686C74.302 14.4285 74.4013 14.9558 74.5997 15.4568C74.7981 15.9546 75.0726 16.3901 75.4265 16.7602C75.7804 17.1302 76.1971 17.4249 76.68 17.6411C77.1629 17.8572 77.692 17.9653 78.2609 17.9653C78.8297 17.9653 79.3358 17.8572 79.812 17.6411C80.2883 17.4249 80.6984 17.1302 81.0456 16.7602C81.3896 16.3901 81.6608 15.9546 81.8559 15.4568C82.0511 14.9558 82.147 14.4285 82.147 13.8686C82.147 13.3086 82.0511 12.7879 81.8559 12.2868C81.6608 11.7825 81.3929 11.3437 81.0456 10.9606C80.7017 10.5807 80.2883 10.2761 79.812 10.0502C79.3358 9.82423 78.8198 9.70961 78.2609 9.70961C77.7019 9.70961 77.1629 9.82423 76.68 10.0502C76.1971 10.2761 75.7804 10.5807 75.4265 10.9606C75.0726 11.3404 74.7981 11.7825 74.5997 12.2868C74.4013 12.7912 74.302 13.3184 74.302 13.8686Z" fill="#333399"/>
<path d="M68.4713 6.83789H66.9301C66.4771 6.83789 66.1099 7.2015 66.1099 7.65003V19.9402C66.1099 20.3887 66.4771 20.7524 66.9301 20.7524H68.4713C68.9243 20.7524 69.2915 20.3887 69.2915 19.9402V7.65003C69.2915 7.2015 68.9243 6.83789 68.4713 6.83789Z" fill="#333399"/>
<path d="M73.1643 6.83789H71.2527C70.902 6.83789 70.6177 7.11939 70.6177 7.46665V25.897C70.6177 26.2443 70.902 26.5258 71.2527 26.5258H73.1643C73.515 26.5258 73.7993 26.2443 73.7993 25.897V7.46665C73.7993 7.11939 73.515 6.83789 73.1643 6.83789Z" fill="#333399"/>
<path d="M107.302 14.2448C107.302 14.8801 107.219 15.4925 107.054 16.082C106.889 16.6714 106.654 17.2216 106.35 17.7324C106.045 18.2433 105.685 18.705 105.262 19.1209C104.838 19.5368 104.369 19.8938 103.856 20.1885C103.34 20.4865 102.791 20.7158 102.202 20.8795C101.614 21.0432 100.998 21.1251 100.357 21.1251C99.7152 21.1251 99.11 21.0432 98.5179 20.8795C97.9259 20.7158 97.3736 20.4832 96.8643 20.1885C96.3517 19.8905 95.8853 19.5368 95.462 19.1209C95.0387 18.705 94.6749 18.2433 94.3739 17.7324C94.0696 17.2216 93.8348 16.6714 93.6694 16.082C93.5041 15.4925 93.4214 14.8801 93.4214 14.2448C93.4214 13.6095 93.5041 12.9971 93.6694 12.411C93.8348 11.8248 94.0696 11.2779 94.3739 10.7703C94.6782 10.2627 95.0387 9.80097 95.462 9.3818C95.8853 8.96263 96.3517 8.60568 96.8643 8.30768C97.3736 8.00967 97.9259 7.78044 98.5179 7.6167C99.11 7.45296 99.7218 7.37109 100.357 7.37109C100.992 7.37109 101.614 7.45296 102.202 7.6167C102.791 7.78044 103.343 8.01295 103.856 8.30768C104.372 8.60568 104.838 8.96263 105.262 9.3818C105.685 9.80097 106.049 10.2627 106.35 10.7703C106.654 11.2779 106.889 11.8248 107.054 12.411C107.219 12.9971 107.302 13.6095 107.302 14.2448V14.2448ZM104.319 14.2448C104.319 13.6848 104.22 13.1576 104.021 12.6566C103.823 12.1588 103.548 11.7233 103.194 11.3532C102.841 10.9832 102.424 10.6884 101.941 10.4723C101.458 10.2562 100.929 10.1481 100.36 10.1481C99.7913 10.1481 99.2852 10.2562 98.809 10.4723C98.3327 10.6884 97.9226 10.9832 97.5754 11.3532C97.2314 11.7233 96.9602 12.1588 96.7651 12.6566C96.5699 13.1576 96.474 13.6848 96.474 14.2448C96.474 14.8048 96.5699 15.3255 96.7651 15.8265C96.9602 16.3308 97.2281 16.7697 97.5754 17.1528C97.9193 17.5327 98.3327 17.8372 98.809 18.0632C99.2852 18.2892 99.8012 18.4038 100.36 18.4038C100.919 18.4038 101.458 18.2892 101.941 18.0632C102.424 17.8372 102.841 17.5327 103.194 17.1528C103.548 16.7729 103.823 16.3308 104.021 15.8265C104.22 15.3222 104.319 14.795 104.319 14.2448Z" fill="#333399"/>
<path d="M107.62 1.58789H105.199C104.989 1.58789 104.818 1.7565 104.818 1.96449V20.8992C104.818 21.1072 104.989 21.2758 105.199 21.2758H107.62C107.83 21.2758 108 21.1072 108 20.8992V1.96449C108 1.7565 107.83 1.58789 107.62 1.58789Z" fill="#333399"/>
<path d="M53.9159 21.2761H50.4697L42.5156 10.584H45.9618L53.9159 21.2761Z" fill="#333399"/>
<path d="M45.9618 2.63965H42.5156V42.4051H45.9618V2.63965Z" fill="#333399"/>
<path d="M64.5191 24.0069V41.422C64.5191 41.7855 64.2082 42.0803 63.8246 42.0803H61.7277C61.3441 42.0803 61.0332 41.7855 61.0332 41.422V24.0069C61.0332 23.6434 61.3441 23.3486 61.7277 23.3486H63.8246C64.2082 23.3486 64.5191 23.6434 64.5191 24.0069Z" fill="#FF3366"/>
<path d="M55.6818 23.3486H69.8668C70.1645 23.3486 70.4026 23.6565 70.4026 24.0363V26.1125C70.4026 26.4924 70.1612 26.8002 69.8668 26.8002H55.6818C55.3841 26.8002 55.146 26.4924 55.146 26.1125V24.0363C55.146 23.6565 55.3874 23.3486 55.6818 23.3486Z" fill="#FF3366"/>
<path d="M45.1811 5.05299V2.55762H42.5088V13.7442H45.1811V11.2816V5.05299Z" fill="#333399"/>
<path d="M46.1403 2.55762H45.1812V5.03661H49.474V3.03573C49.474 2.77048 49.269 2.55762 49.0143 2.55762H46.1403Z" fill="#333399"/>
<path d="M46.1403 11.2656H45.1812V13.7446H49.0209C49.2723 13.7446 49.474 13.5318 49.474 13.2731V11.2656H46.1403V11.2656Z" fill="#333399"/>
<path d="M49.0902 5.03696C49.0902 5.03696 51.2069 5.72466 51.4682 7.90565C51.4946 8.02682 51.7063 10.2471 49.0902 11.2656V13.7446C49.0902 13.7446 52.8539 13.4662 54.0975 9.6511C54.0975 9.46444 54.9408 7.68297 53.4327 5.18432C53.4063 5.11883 51.9279 2.74462 49.0869 2.55469" fill="#333399"/>
<path d="M46.1403 2.96094H45.1812V5.40391H49.474V3.4325C49.474 3.1738 49.269 2.96094 49.0143 2.96094H46.1403V2.96094Z" fill="#333399"/>
<path d="M48.1311 13.063H49.0902V10.584H44.7974V12.5849C44.7974 12.8501 45.0024 13.063 45.2571 13.063H48.1311Z" fill="#333399"/>
<path d="M45.8525 5.05299V2.55762H43.1802V13.7442H45.8525V11.2816V5.05299Z" fill="#333399"/>
<path d="M48.9545 5.21373C48.9545 5.21373 51.0712 5.80974 51.3324 7.70583C51.3589 7.81062 51.5706 9.74273 48.9545 10.6269V12.7817C48.9545 12.7817 52.7182 12.5394 53.9617 9.22532C53.9617 9.06485 54.8051 7.51589 53.297 5.34145C53.2705 5.2825 51.7921 3.22268 48.9512 3.05566" fill="#333399"/>
<path d="M54.4086 21.2761H50.9624L43.0083 10.584H46.4545L54.4086 21.2761Z" fill="#333399"/>
<path d="M5.52981 2.31152H40.0184V41.9361H5.52981C2.47717 41.9361 0 39.4833 0 36.4607V7.78693C0 4.76432 2.47717 2.31152 5.52981 2.31152Z" fill="#333399"/>
<path d="M19.6286 14.5693H19.6187C18.8382 14.5759 18.0246 14.5759 17.1977 14.5693H17.1911C16.8207 14.5693 16.6322 14.756 16.6223 15.126C16.6057 15.9022 16.6057 16.7209 16.6223 17.5657C16.6289 17.9325 16.8207 18.1159 17.1911 18.1159H19.6352C20.0288 18.1159 20.2206 17.926 20.2272 17.5395C20.2371 16.6193 20.2371 15.8596 20.2272 15.1457C20.2206 14.7593 20.0255 14.5693 19.6319 14.5693H19.6286V14.5693ZM19.1193 17.0189H17.7534V15.6631H19.1193V17.0189Z" fill="#333366"/>
<path d="M24.7222 15.8138C23.8656 15.7974 23.0024 15.8007 22.1623 15.8138C21.8415 15.8204 21.653 16.0169 21.6563 16.3378C21.6563 16.6784 21.8514 16.8683 22.202 16.8716H24.6692C25.033 16.8716 25.2249 16.698 25.2414 16.364C25.248 16.1937 25.205 16.0529 25.1157 15.9579C25.0264 15.8629 24.8908 15.8138 24.7222 15.8105V15.8138Z" fill="#333366"/>
<path d="M12.2699 20.6504H24.8045C25.1683 20.6504 25.466 20.9451 25.466 21.3053C25.466 21.6656 25.1683 21.9603 24.8045 21.9603H12.2699C11.9061 21.9603 11.6084 21.6656 11.6084 21.3053C11.6084 20.9451 11.9061 20.6504 12.2699 20.6504Z" fill="#333366"/>
<path d="M9.44222 24.2529H24.8046C25.1685 24.2529 25.4661 24.5477 25.4661 24.9079C25.4661 25.2681 25.1685 25.5628 24.8046 25.5628H9.44222C9.07842 25.5628 8.78076 25.2681 8.78076 24.9079C8.78076 24.5477 9.07842 24.2529 9.44222 24.2529Z" fill="#333366"/>
<path d="M6.61459 27.8555H24.8048C25.1686 27.8555 25.4662 28.1502 25.4662 28.5104C25.4662 28.8706 25.1686 29.1654 24.8048 29.1654H6.61459C6.25078 29.1654 5.95312 28.8706 5.95312 28.5104C5.95312 28.1502 6.25078 27.8555 6.61459 27.8555Z" fill="#333366"/>
<path d="M30.0964 14.5137C30.0964 12.2606 28.2443 10.4268 25.9689 10.4268H16.0338C13.7583 10.4268 11.9062 12.2606 11.9062 14.5137V17.7884C11.9062 18.201 12.2436 18.5351 12.6603 18.5351C13.077 18.5351 13.4144 18.201 13.4144 17.7884V14.5137C13.4144 13.0859 14.5885 11.9233 16.0305 11.9233H25.9656C27.4076 11.9233 28.5817 13.0859 28.5817 14.5137V29.4073C28.5817 30.8351 27.4076 31.9976 25.9656 31.9976H16.0305C15.0978 31.9976 14.228 31.4966 13.7616 30.691C13.6227 30.4519 13.3714 30.3046 13.1035 30.3046C12.8356 30.3046 12.5909 30.4421 12.4553 30.6746C12.3164 30.9137 12.3164 31.1986 12.4553 31.4409C13.1895 32.7082 14.5587 33.4942 16.0271 33.4942H25.9623C28.2377 33.4942 30.0898 31.6603 30.0898 29.4073V14.5137H30.0964Z" fill="#333366"/>
<path d="M19.6286 14.5693H19.6187C18.8382 14.5759 18.0246 14.5759 17.1977 14.5693H17.1911C16.8207 14.5693 16.6322 14.756 16.6223 15.126C16.6057 15.9022 16.6057 16.7209 16.6223 17.5657C16.6289 17.9325 16.8207 18.1159 17.1911 18.1159H19.6352C20.0288 18.1159 20.2206 17.926 20.2272 17.5395C20.2371 16.6193 20.2371 15.8596 20.2272 15.1457C20.2206 14.7593 20.0255 14.5693 19.6319 14.5693H19.6286V14.5693ZM19.1193 17.0189H17.7534V15.6631H19.1193V17.0189Z" fill="white"/>
<path d="M24.7222 15.8138C23.8656 15.7974 23.0024 15.8007 22.1623 15.8138C21.8415 15.8204 21.653 16.0169 21.6563 16.3378C21.6563 16.6784 21.8514 16.8683 22.202 16.8716H24.6692C25.033 16.8716 25.2249 16.698 25.2414 16.364C25.248 16.1937 25.205 16.0529 25.1157 15.9579C25.0264 15.8629 24.8908 15.8138 24.7222 15.8105V15.8138Z" fill="white"/>
<path d="M12.2699 20.6504H24.8045C25.1683 20.6504 25.466 20.9451 25.466 21.3053C25.466 21.6656 25.1683 21.9603 24.8045 21.9603H12.2699C11.9061 21.9603 11.6084 21.6656 11.6084 21.3053C11.6084 20.9451 11.9061 20.6504 12.2699 20.6504Z" fill="white"/>
<path d="M9.44222 24.2529H24.8046C25.1685 24.2529 25.4661 24.5477 25.4661 24.9079C25.4661 25.2681 25.1685 25.5628 24.8046 25.5628H9.44222C9.07842 25.5628 8.78076 25.2681 8.78076 24.9079C8.78076 24.5477 9.07842 24.2529 9.44222 24.2529Z" fill="white"/>
<path d="M6.61459 27.8555H24.8048C25.1686 27.8555 25.4662 28.1502 25.4662 28.5104C25.4662 28.8706 25.1686 29.1654 24.8048 29.1654H6.61459C6.25078 29.1654 5.95312 28.8706 5.95312 28.5104C5.95312 28.1502 6.25078 27.8555 6.61459 27.8555Z" fill="white"/>
<path d="M30.0964 14.5137C30.0964 12.2606 28.2443 10.4268 25.9689 10.4268H16.0338C13.7583 10.4268 11.9062 12.2606 11.9062 14.5137V17.7884C11.9062 18.201 12.2436 18.5351 12.6603 18.5351C13.077 18.5351 13.4144 18.201 13.4144 17.7884V14.5137C13.4144 13.0859 14.5885 11.9233 16.0305 11.9233H25.9656C27.4076 11.9233 28.5817 13.0859 28.5817 14.5137V29.4073C28.5817 30.8351 27.4076 31.9976 25.9656 31.9976H16.0305C15.0978 31.9976 14.228 31.4966 13.7616 30.691C13.6227 30.4519 13.3714 30.3046 13.1035 30.3046C12.8356 30.3046 12.5909 30.4421 12.4553 30.6746C12.3164 30.9137 12.3164 31.1986 12.4553 31.4409C13.1895 32.7082 14.5587 33.4942 16.0271 33.4942H25.9623C28.2377 33.4942 30.0898 31.6603 30.0898 29.4073V14.5137H30.0964Z" fill="white"/>
</g>
<defs>
<clipPath id="clip0_4153_201371">
<rect width="108" height="42.4049" fill="white"/>
</clipPath>
</defs>
</svg>
