<svg width="25" height="25" viewBox="0 0 25 25" fill="none" xmlns="http://www.w3.org/2000/svg">
<path d="M2.5 20.0049H4.5M4.5 20.0049H14.5M4.5 20.0049V6.20508C4.5 5.08497 4.5 4.5245 4.71799 4.09668C4.90973 3.72036 5.21547 3.41462 5.5918 3.22287C6.01962 3.00488 6.58009 3.00488 7.7002 3.00488H11.3002C12.4203 3.00488 12.9796 3.00488 13.4074 3.22287C13.7837 3.41462 14.0905 3.72036 14.2822 4.09668C14.5 4.52408 14.5 5.08388 14.5 6.20179V12.0049M14.5 20.0049H20.5M14.5 20.0049V12.0049M20.5 20.0049H22.5M20.5 20.0049V12.0049C20.5 11.073 20.4999 10.6073 20.3477 10.2397C20.1447 9.74969 19.7557 9.36011 19.2656 9.15712C18.8981 9.00488 18.4316 9.00488 17.4997 9.00488C16.5679 9.00488 16.1019 9.00488 15.7344 9.15712C15.2443 9.36011 14.8552 9.74969 14.6522 10.2397C14.5 10.6073 14.5 11.073 14.5 12.0049M7.5 10.0049H11.5M7.5 7.00488H11.5" stroke="#08081C" stroke-width="2" stroke-linecap="round" stroke-linejoin="round"/>
</svg>
