<svg width="114" height="25" viewBox="0 0 114 25" fill="none" xmlns="http://www.w3.org/2000/svg">
<path d="M2.5 20.0049H4.5M4.5 20.0049H14.5M4.5 20.0049V6.20508C4.5 5.08497 4.5 4.5245 4.71799 4.09668C4.90973 3.72036 5.21547 3.41462 5.5918 3.22287C6.01962 3.00488 6.58009 3.00488 7.7002 3.00488H11.3002C12.4203 3.00488 12.9796 3.00488 13.4074 3.22287C13.7837 3.41462 14.0905 3.72036 14.2822 4.09668C14.5 4.52408 14.5 5.08388 14.5 6.20179V12.0049M14.5 20.0049H20.5M14.5 20.0049V12.0049M20.5 20.0049H22.5M20.5 20.0049V12.0049C20.5 11.073 20.4999 10.6073 20.3477 10.2397C20.1447 9.74969 19.7557 9.36011 19.2656 9.15712C18.8981 9.00488 18.4316 9.00488 17.4997 9.00488C16.5679 9.00488 16.1019 9.00488 15.7344 9.15712C15.2443 9.36011 14.8552 9.74969 14.6522 10.2397C14.5 10.6073 14.5 11.073 14.5 12.0049M7.5 10.0049H11.5M7.5 7.00488H11.5" stroke="#08081C" stroke-width="2" stroke-linecap="round" stroke-linejoin="round"/>
<path d="M39.1719 9.99778C39.1188 9.52714 38.9001 9.16255 38.5156 8.90403C38.1312 8.64219 37.6473 8.51127 37.0639 8.51127C36.6463 8.51127 36.285 8.57756 35.9801 8.71014C35.6752 8.8394 35.4382 9.01838 35.2692 9.24707C35.1035 9.47245 35.0206 9.72931 35.0206 10.0177C35.0206 10.2596 35.0769 10.4684 35.1896 10.6441C35.3056 10.8197 35.4564 10.9672 35.642 11.0866C35.831 11.2026 36.0331 11.3003 36.2486 11.3799C36.464 11.4561 36.6712 11.5191 36.87 11.5688L37.8643 11.8273C38.1892 11.9069 38.5223 12.0146 38.8636 12.1505C39.205 12.2864 39.5215 12.4653 39.8132 12.6874C40.1049 12.9095 40.3402 13.1846 40.5192 13.5127C40.7015 13.8408 40.7926 14.2336 40.7926 14.691C40.7926 15.2677 40.6435 15.7797 40.3452 16.2272C40.0502 16.6746 39.621 17.0276 39.0575 17.2861C38.4974 17.5447 37.8196 17.6739 37.0241 17.6739C36.2618 17.6739 35.6023 17.5529 35.0455 17.311C34.4886 17.069 34.0528 16.726 33.7379 16.2819C33.4231 15.8344 33.2491 15.3041 33.2159 14.691H34.7571C34.7869 15.0589 34.9063 15.3654 35.1151 15.6107C35.3272 15.8527 35.5973 16.0333 35.9254 16.1526C36.2569 16.2686 36.6198 16.3266 37.0142 16.3266C37.4484 16.3266 37.8345 16.2587 38.1726 16.1228C38.514 15.9836 38.7824 15.7913 38.978 15.5461C39.1735 15.2975 39.2713 15.0075 39.2713 14.676C39.2713 14.3744 39.1851 14.1275 39.0128 13.9353C38.8438 13.743 38.6134 13.584 38.3217 13.458C38.0334 13.3321 37.7069 13.221 37.3423 13.1249L36.1392 12.7968C35.3239 12.5747 34.6776 12.2483 34.2003 11.8174C33.7263 11.3865 33.4893 10.8164 33.4893 10.1072C33.4893 9.52051 33.6484 9.00843 33.9666 8.57093C34.2848 8.13343 34.7157 7.79371 35.2592 7.55176C35.8028 7.30649 36.416 7.18386 37.0987 7.18386C37.7881 7.18386 38.3963 7.30484 38.9233 7.54679C39.4536 7.78874 39.8712 8.12183 40.1761 8.54608C40.4811 8.967 40.6402 9.45091 40.6534 9.99778H39.1719ZM44.7314 17.6739C44.2475 17.6739 43.81 17.5844 43.4189 17.4055C43.0278 17.2232 42.7179 16.9597 42.4892 16.615C42.2638 16.2703 42.1511 15.8477 42.1511 15.3472C42.1511 14.9163 42.234 14.5617 42.3997 14.2833C42.5654 14.0049 42.7891 13.7845 43.0708 13.6221C43.3526 13.4597 43.6674 13.337 44.0154 13.2542C44.3635 13.1713 44.7181 13.1083 45.0794 13.0653C45.5368 13.0122 45.908 12.9691 46.193 12.936C46.478 12.8995 46.6852 12.8415 46.8145 12.762C46.9437 12.6824 47.0083 12.5532 47.0083 12.3742V12.3394C47.0083 11.9052 46.8857 11.5688 46.6404 11.3302C46.3985 11.0915 46.0372 10.9722 45.5566 10.9722C45.0562 10.9722 44.6618 11.0832 44.3734 11.3053C44.0884 11.5241 43.8912 11.7677 43.7818 12.0361L42.3848 11.718C42.5505 11.2539 42.7924 10.8794 43.1106 10.5944C43.4321 10.306 43.8017 10.0972 44.2193 9.96795C44.6369 9.83538 45.0761 9.76909 45.5368 9.76909C45.8417 9.76909 46.1648 9.80555 46.5062 9.87846C46.8509 9.94806 47.1724 10.0773 47.4707 10.2662C47.7723 10.4552 48.0192 10.7253 48.2115 11.0766C48.4037 11.4246 48.4998 11.877 48.4998 12.4339V17.5049H47.0481V16.4608H46.9885C46.8923 16.6531 46.7482 16.842 46.5559 17.0276C46.3637 17.2132 46.1168 17.3673 45.8152 17.49C45.5136 17.6126 45.1523 17.6739 44.7314 17.6739ZM45.0545 16.4807C45.4655 16.4807 45.8168 16.3995 46.1085 16.2371C46.4035 16.0747 46.6272 15.8626 46.7797 15.6008C46.9354 15.3356 47.0133 15.0522 47.0133 14.7506V13.7662C46.9603 13.8193 46.8575 13.869 46.7051 13.9154C46.5559 13.9585 46.3852 13.9966 46.193 14.0297C46.0008 14.0596 45.8135 14.0877 45.6312 14.1143C45.4489 14.1375 45.2965 14.1573 45.1738 14.1739C44.8855 14.2104 44.622 14.2717 44.3833 14.3579C44.148 14.444 43.9591 14.5683 43.8166 14.7307C43.6774 14.8898 43.6078 15.1019 43.6078 15.3671C43.6078 15.735 43.7437 16.0134 44.0154 16.2023C44.2872 16.3879 44.6336 16.4807 45.0545 16.4807ZM53.6964 17.659C52.9573 17.659 52.3209 17.4916 51.7873 17.1569C51.257 16.8188 50.8493 16.3531 50.5643 15.7599C50.2792 15.1666 50.1367 14.4871 50.1367 13.7215C50.1367 12.9459 50.2826 12.2615 50.5742 11.6682C50.8659 11.0716 51.2769 10.606 51.8072 10.2712C52.3375 9.93646 52.9622 9.76909 53.6815 9.76909C54.2615 9.76909 54.7785 9.87681 55.2326 10.0922C55.6867 10.3044 56.0529 10.6027 56.3313 10.9871C56.613 11.3716 56.7804 11.8207 56.8335 12.3344H55.3867C55.3072 11.9765 55.1249 11.6682 54.8398 11.4097C54.5581 11.1512 54.1803 11.0219 53.7063 11.0219C53.292 11.0219 52.9291 11.1313 52.6175 11.3501C52.3093 11.5655 52.069 11.8737 51.8967 12.2748C51.7243 12.6725 51.6381 13.1431 51.6381 13.6867C51.6381 14.2435 51.7227 14.7241 51.8917 15.1285C52.0607 15.5328 52.2994 15.846 52.6076 16.0681C52.9192 16.2902 53.2854 16.4012 53.7063 16.4012C53.988 16.4012 54.2433 16.3498 54.4719 16.2471C54.704 16.141 54.8978 15.9902 55.0536 15.7947C55.2127 15.5991 55.3237 15.3638 55.3867 15.0887H56.8335C56.7804 15.5825 56.6197 16.0233 56.3512 16.4111C56.0827 16.7989 55.7231 17.1038 55.2724 17.3259C54.8249 17.548 54.2996 17.659 53.6964 17.659ZM58.4231 17.5049V9.86852H59.8599V11.0816H59.9395C60.0787 10.6706 60.3239 10.3474 60.6752 10.1121C61.0299 9.87349 61.4309 9.75417 61.8784 9.75417C61.9712 9.75417 62.0806 9.75749 62.2065 9.76412C62.3358 9.77074 62.4368 9.77903 62.5098 9.78897V11.2108C62.4501 11.1943 62.344 11.176 62.1916 11.1562C62.0391 11.133 61.8867 11.1214 61.7342 11.1214C61.3829 11.1214 61.0697 11.1959 60.7946 11.3451C60.5228 11.4909 60.3074 11.6947 60.1483 11.9566C59.9892 12.2151 59.9096 12.5101 59.9096 12.8415V17.5049H58.4231ZM65.9501 17.6739C65.4662 17.6739 65.0287 17.5844 64.6376 17.4055C64.2465 17.2232 63.9366 16.9597 63.7079 16.615C63.4825 16.2703 63.3699 15.8477 63.3699 15.3472C63.3699 14.9163 63.4527 14.5617 63.6184 14.2833C63.7842 14.0049 64.0079 13.7845 64.2896 13.6221C64.5713 13.4597 64.8862 13.337 65.2342 13.2542C65.5822 13.1713 65.9368 13.1083 66.2981 13.0653C66.7555 13.0122 67.1267 12.9691 67.4118 12.936C67.6968 12.8995 67.9039 12.8415 68.0332 12.762C68.1625 12.6824 68.2271 12.5532 68.2271 12.3742V12.3394C68.2271 11.9052 68.1045 11.5688 67.8592 11.3302C67.6172 11.0915 67.256 10.9722 66.7754 10.9722C66.2749 10.9722 65.8805 11.0832 65.5922 11.3053C65.3071 11.5241 65.1099 11.7677 65.0005 12.0361L63.6035 11.718C63.7692 11.2539 64.0112 10.8794 64.3294 10.5944C64.6509 10.306 65.0204 10.0972 65.438 9.96795C65.8556 9.83538 66.2948 9.76909 66.7555 9.76909C67.0604 9.76909 67.3836 9.80555 67.725 9.87846C68.0697 9.94806 68.3912 10.0773 68.6895 10.2662C68.9911 10.4552 69.238 10.7253 69.4302 11.0766C69.6225 11.4246 69.7186 11.877 69.7186 12.4339V17.5049H68.2669V16.4608H68.2072C68.1111 16.6531 67.9669 16.842 67.7747 17.0276C67.5824 17.2132 67.3355 17.3673 67.0339 17.49C66.7323 17.6126 66.371 17.6739 65.9501 17.6739ZM66.2733 16.4807C66.6842 16.4807 67.0356 16.3995 67.3272 16.2371C67.6222 16.0747 67.8459 15.8626 67.9984 15.6008C68.1542 15.3356 68.2321 15.0522 68.2321 14.7506V13.7662C68.179 13.8193 68.0763 13.869 67.9238 13.9154C67.7747 13.9585 67.604 13.9966 67.4118 14.0297C67.2195 14.0596 67.0323 14.0877 66.85 14.1143C66.6677 14.1375 66.5152 14.1573 66.3926 14.1739C66.1042 14.2104 65.8407 14.2717 65.6021 14.3579C65.3668 14.444 65.1779 14.5683 65.0353 14.7307C64.8961 14.8898 64.8265 15.1019 64.8265 15.3671C64.8265 15.735 64.9624 16.0134 65.2342 16.2023C65.506 16.3879 65.8523 16.4807 66.2733 16.4807ZM71.6985 17.5049V9.86852H73.1254V11.1114H73.2198C73.3789 10.6905 73.6391 10.3624 74.0004 10.127C74.3616 9.88841 74.7942 9.76909 75.2979 9.76909C75.8084 9.76909 76.2359 9.88841 76.5806 10.127C76.9286 10.3657 77.1855 10.6938 77.3512 11.1114H77.4308C77.613 10.7037 77.9031 10.3789 78.3008 10.137C78.6985 9.89172 79.1725 9.76909 79.7227 9.76909C80.4154 9.76909 80.9805 9.98618 81.418 10.4204C81.8588 10.8546 82.0792 11.5091 82.0792 12.3841V17.5049H80.5927V12.5233C80.5927 12.0063 80.4518 11.6318 80.1701 11.3998C79.8884 11.1678 79.552 11.0518 79.1609 11.0518C78.677 11.0518 78.3008 11.2009 78.0323 11.4992C77.7638 11.7942 77.6296 12.1737 77.6296 12.6377V17.5049H76.1481V12.4289C76.1481 12.0146 76.0188 11.6815 75.7603 11.4296C75.5018 11.1777 75.1654 11.0518 74.7511 11.0518C74.4693 11.0518 74.2092 11.1263 73.9705 11.2755C73.7352 11.4213 73.5446 11.6251 73.3988 11.887C73.2563 12.1488 73.185 12.4521 73.185 12.7968V17.5049H71.6985ZM87.3627 17.659C86.6104 17.659 85.9624 17.4983 85.4189 17.1768C84.8786 16.8519 84.461 16.3962 84.166 15.8096C83.8743 15.2196 83.7285 14.5286 83.7285 13.7364C83.7285 12.9542 83.8743 12.2648 84.166 11.6682C84.461 11.0716 84.872 10.606 85.399 10.2712C85.9293 9.93646 86.5491 9.76909 87.2583 9.76909C87.6892 9.76909 88.1068 9.84035 88.5112 9.98287C88.9155 10.1254 89.2785 10.3491 89.6 10.654C89.9215 10.959 90.175 11.355 90.3606 11.8422C90.5462 12.3261 90.639 12.9144 90.639 13.6072V14.1341H84.5687V13.0205H89.1824C89.1824 12.6294 89.1028 12.2831 88.9437 11.9814C88.7846 11.6765 88.5609 11.4362 88.2725 11.2606C87.9875 11.0849 87.6528 10.9971 87.2683 10.9971C86.8507 10.9971 86.4861 11.0998 86.1745 11.3053C85.8663 11.5075 85.6277 11.7726 85.4586 12.1008C85.2929 12.4256 85.21 12.7786 85.21 13.1597V14.0297C85.21 14.5402 85.2995 14.9743 85.4785 15.3323C85.6608 15.6903 85.9144 15.9637 86.2392 16.1526C86.564 16.3382 86.9435 16.431 87.3777 16.431C87.6594 16.431 87.9163 16.3912 88.1483 16.3117C88.3803 16.2288 88.5808 16.1062 88.7498 15.9438C88.9189 15.7814 89.0481 15.5809 89.1376 15.3422L90.5446 15.5958C90.4319 16.0101 90.2297 16.373 89.938 16.6846C89.6497 16.9928 89.2868 17.2331 88.8493 17.4055C88.4151 17.5745 87.9196 17.659 87.3627 17.659ZM93.7749 12.9708V17.5049H92.2884V9.86852H93.7152V11.1114H93.8097C93.9853 10.7071 94.2604 10.3823 94.6349 10.137C95.0128 9.89172 95.4884 9.76909 96.0618 9.76909C96.5821 9.76909 97.0379 9.87846 97.429 10.0972C97.8201 10.3126 98.1233 10.6341 98.3388 11.0617C98.5542 11.4893 98.6619 12.0179 98.6619 12.6476V17.5049H97.1754V12.8266C97.1754 12.2731 97.0313 11.8406 96.7429 11.529C96.4545 11.2142 96.0585 11.0567 95.5547 11.0567C95.21 11.0567 94.9034 11.1313 94.6349 11.2805C94.3698 11.4296 94.1593 11.6483 94.0036 11.9367C93.8511 12.2217 93.7749 12.5664 93.7749 12.9708ZM104.22 9.86852V11.0617H100.049V9.86852H104.22ZM101.168 8.03897H102.654V15.2627C102.654 15.551 102.697 15.7681 102.783 15.914C102.87 16.0565 102.981 16.1543 103.116 16.2073C103.256 16.257 103.406 16.2819 103.569 16.2819C103.688 16.2819 103.793 16.2736 103.882 16.257C103.972 16.2404 104.041 16.2272 104.091 16.2172L104.359 17.4452C104.273 17.4784 104.151 17.5115 103.991 17.5447C103.832 17.5811 103.634 17.601 103.395 17.6043C103.004 17.6109 102.639 17.5413 102.301 17.3955C101.963 17.2497 101.69 17.0243 101.481 16.7194C101.272 16.4144 101.168 16.0316 101.168 15.5709V8.03897ZM108.999 17.659C108.283 17.659 107.658 17.4949 107.125 17.1668C106.591 16.8387 106.177 16.3796 105.882 15.7897C105.587 15.1997 105.439 14.5103 105.439 13.7215C105.439 12.9294 105.587 12.2367 105.882 11.6434C106.177 11.0501 106.591 10.5894 107.125 10.2613C107.658 9.93315 108.283 9.76909 108.999 9.76909C109.715 9.76909 110.34 9.93315 110.873 10.2613C111.407 10.5894 111.821 11.0501 112.116 11.6434C112.411 12.2367 112.559 12.9294 112.559 13.7215C112.559 14.5103 112.411 15.1997 112.116 15.7897C111.821 16.3796 111.407 16.8387 110.873 17.1668C110.34 17.4949 109.715 17.659 108.999 17.659ZM109.004 16.4111C109.468 16.4111 109.853 16.2885 110.157 16.0432C110.462 15.798 110.688 15.4715 110.834 15.0638C110.983 14.6562 111.057 14.2071 111.057 13.7165C111.057 13.2293 110.983 12.7819 110.834 12.3742C110.688 11.9632 110.462 11.6334 110.157 11.3849C109.853 11.1363 109.468 11.012 109.004 11.012C108.537 11.012 108.149 11.1363 107.841 11.3849C107.536 11.6334 107.309 11.9632 107.16 12.3742C107.014 12.7819 106.941 13.2293 106.941 13.7165C106.941 14.2071 107.014 14.6562 107.16 15.0638C107.309 15.4715 107.536 15.798 107.841 16.0432C108.149 16.2885 108.537 16.4111 109.004 16.4111Z" fill="#212133"/>
</svg>
