<svg width="25" height="24" viewBox="0 0 25 24" fill="none" xmlns="http://www.w3.org/2000/svg">
<path fill-rule="evenodd" clip-rule="evenodd" d="M12.25 18C15.5637 18 18.25 15.3137 18.25 12C18.25 8.68629 15.5637 6 12.25 6C8.93629 6 6.25 8.68629 6.25 12C6.25 15.3137 8.93629 18 12.25 18Z" fill="#535763"/>
<path fill-rule="evenodd" clip-rule="evenodd" d="M12.245 1.5C12.7973 1.5 13.245 1.94772 13.245 2.5V3.5C13.245 4.05228 12.7973 4.5 12.245 4.5C11.6927 4.5 11.245 4.05228 11.245 3.5V2.5C11.245 1.94772 11.6927 1.5 12.245 1.5Z" fill="#535763"/>
<path fill-rule="evenodd" clip-rule="evenodd" d="M12.245 19.5C12.7973 19.5 13.245 19.9477 13.245 20.5V21.4968C13.245 22.0491 12.7973 22.4968 12.245 22.4968C11.6927 22.4968 11.245 22.0491 11.245 21.4968V20.5C11.245 19.9477 11.6927 19.5 12.245 19.5Z" fill="#535763"/>
<path fill-rule="evenodd" clip-rule="evenodd" d="M1.74658 11.9984C1.74658 11.4461 2.1943 10.9984 2.74658 10.9984H3.74658C4.29887 10.9984 4.74658 11.4461 4.74658 11.9984C4.74658 12.5507 4.29887 12.9984 3.74658 12.9984H2.74658C2.1943 12.9984 1.74658 12.5507 1.74658 11.9984Z" fill="#535763"/>
<path fill-rule="evenodd" clip-rule="evenodd" d="M19.7466 11.9984C19.7466 11.4461 20.1943 10.9984 20.7466 10.9984H21.7434C22.2956 10.9984 22.7434 11.4461 22.7434 11.9984C22.7434 12.5507 22.2956 12.9984 21.7434 12.9984H20.7466C20.1943 12.9984 19.7466 12.5507 19.7466 11.9984Z" fill="#535763"/>
<path fill-rule="evenodd" clip-rule="evenodd" d="M4.82159 19.4219C4.43106 19.0313 4.43106 18.3982 4.82159 18.0077L5.52869 17.3005C5.91922 16.91 6.55238 16.91 6.94291 17.3005C7.33343 17.6911 7.33343 18.3242 6.94291 18.7148L6.2358 19.4219C5.84527 19.8124 5.21211 19.8124 4.82159 19.4219Z" fill="#535763"/>
<path fill-rule="evenodd" clip-rule="evenodd" d="M17.5495 6.69394C17.159 6.30342 17.159 5.67025 17.5495 5.27973L18.2543 4.5749C18.6449 4.18438 19.278 4.18438 19.6685 4.5749C20.0591 4.96543 20.0591 5.59859 19.6685 5.98911L18.9637 6.69394C18.5732 7.08447 17.94 7.08447 17.5495 6.69394Z" fill="#535763"/>
<path fill-rule="evenodd" clip-rule="evenodd" d="M4.82159 4.5749C5.21211 4.18438 5.84527 4.18438 6.2358 4.5749L6.94291 5.28201C7.33343 5.67253 7.33343 6.3057 6.94291 6.69622C6.55238 7.08675 5.91922 7.08675 5.52869 6.69622L4.82159 5.98911C4.43106 5.59859 4.43106 4.96543 4.82159 4.5749Z" fill="#535763"/>
<path fill-rule="evenodd" clip-rule="evenodd" d="M17.5495 17.3028C17.94 16.9123 18.5732 16.9123 18.9637 17.3028L19.6686 18.0077C20.0591 18.3982 20.0591 19.0313 19.6686 19.4219C19.278 19.8124 18.6449 19.8124 18.2543 19.4219L17.5495 18.717C17.159 18.3265 17.159 17.6933 17.5495 17.3028Z" fill="#535763"/>
</svg>
