<svg width="48" height="49" viewBox="0 0 48 49" fill="none" xmlns="http://www.w3.org/2000/svg">
<path d="M21.2305 21.6504H19.2002C18.0801 21.6504 17.5196 21.6504 17.0918 21.8684C16.7155 22.0601 16.4097 22.3659 16.218 22.7422C16 23.17 16 23.7305 16 24.8506V30.4506C16 31.5707 16 32.1304 16.218 32.5583C16.4097 32.9346 16.7155 33.2409 17.0918 33.4326C17.5192 33.6504 18.079 33.6504 19.1969 33.6504H28.8031C29.921 33.6504 30.48 33.6504 30.9074 33.4326C31.2837 33.2409 31.5905 32.9346 31.7822 32.5583C32 32.1309 32 31.5719 32 30.454V24.8473C32 23.7294 32 23.1696 31.7822 22.7422C31.5905 22.3659 31.2837 22.0601 30.9074 21.8684C30.4796 21.6504 29.9203 21.6504 28.8002 21.6504H26.7689M21.2305 21.6504H26.7689M21.2305 21.6504C21.103 21.6504 21 21.5471 21 21.4196V18.6504C21 16.9935 22.3431 15.6504 24 15.6504C25.6569 15.6504 27 16.9935 27 18.6504V21.4196C27 21.5471 26.8964 21.6504 26.7689 21.6504" stroke="#333399" stroke-width="2" stroke-linecap="round" stroke-linejoin="round"/>
</svg>
