<svg width="25" height="24" viewBox="0 0 25 24" fill="none" xmlns="http://www.w3.org/2000/svg">
<path d="M3.5 17.8002V6.2002C3.5 5.08009 3.5 4.51962 3.71799 4.0918C3.90973 3.71547 4.21547 3.40973 4.5918 3.21799C5.01962 3 5.58009 3 6.7002 3H18.3002C19.4203 3 19.9796 3 20.4074 3.21799C20.7837 3.40973 21.0905 3.71547 21.2822 4.0918C21.5 4.5192 21.5 5.07899 21.5 6.19691V17.8031C21.5 18.921 21.5 19.48 21.2822 19.9074C21.0905 20.2837 20.7837 20.5905 20.4074 20.7822C19.98 21 19.421 21 18.3031 21H17.5H7.5H6.69691C5.57899 21 5.0192 21 4.5918 20.7822C4.21547 20.5905 3.90973 20.2837 3.71799 19.9074C3.5 19.4796 3.5 18.9203 3.5 17.8002Z" fill="#D6D6EB"/>
<path d="M17.5 21C17.5 18.2386 15.2614 16 12.5 16C9.73858 16 7.5 18.2386 7.5 21M17.5 21H18.3031C19.421 21 19.98 21 20.4074 20.7822C20.7837 20.5905 21.0905 20.2837 21.2822 19.9074C21.5 19.48 21.5 18.921 21.5 17.8031V6.19691C21.5 5.07899 21.5 4.5192 21.2822 4.0918C21.0905 3.71547 20.7837 3.40973 20.4074 3.21799C19.9796 3 19.4203 3 18.3002 3H6.7002C5.58009 3 5.01962 3 4.5918 3.21799C4.21547 3.40973 3.90973 3.71547 3.71799 4.0918C3.5 4.51962 3.5 5.08009 3.5 6.2002V17.8002C3.5 18.9203 3.5 19.4796 3.71799 19.9074C3.90973 20.2837 4.21547 20.5905 4.5918 20.7822C5.0192 21 5.57899 21 6.69691 21H7.5M17.5 21H7.5M12.5 13C10.8431 13 9.5 11.6569 9.5 10C9.5 8.34315 10.8431 7 12.5 7C14.1569 7 15.5 8.34315 15.5 10C15.5 11.6569 14.1569 13 12.5 13Z" stroke="#4848A4" stroke-width="2" stroke-linecap="round" stroke-linejoin="round"/>
</svg>
