<svg width="44" height="43" viewBox="0 0 44 43" fill="none" xmlns="http://www.w3.org/2000/svg">
<path d="M22.0945 16.1251V23.2918M8.30033 27.2331C6.65426 30.0553 5.83146 31.4669 5.9544 32.6248C6.06164 33.6348 6.59715 34.5524 7.42715 35.1493C8.3784 35.8334 10.0234 35.8334 13.3134 35.8334H30.8756C34.1656 35.8334 35.8103 35.8334 36.7616 35.1493C37.5916 34.5524 38.1274 33.6348 38.2346 32.6248C38.3575 31.4669 37.535 30.0553 35.8889 27.2331L27.1109 12.1831C25.4648 9.36088 24.6414 7.95002 23.5669 7.47646C22.6296 7.0634 21.5588 7.0634 20.6215 7.47646C19.5474 7.94982 18.7245 9.36069 17.0798 12.1806L8.30033 27.2331ZM22.1864 28.6668V28.8459L22.0044 28.8463V28.6668H22.1864Z" stroke="#FF0000" stroke-width="2" stroke-linecap="round" stroke-linejoin="round"/>
</svg>
