<svg width="18" height="21" viewBox="0 0 18 21" fill="none" xmlns="http://www.w3.org/2000/svg">
<path d="M6.23047 7.65039H4.2002C3.08009 7.65039 2.51962 7.65039 2.0918 7.86838C1.71547 8.06012 1.40973 8.36586 1.21799 8.74219C1 9.17001 1 9.73048 1 10.8506V16.4506C1 17.5707 1 18.1304 1.21799 18.5583C1.40973 18.9346 1.71547 19.2409 2.0918 19.4326C2.5192 19.6504 3.07902 19.6504 4.19694 19.6504H13.8031C14.921 19.6504 15.48 19.6504 15.9074 19.4326C16.2837 19.2409 16.5905 18.9346 16.7822 18.5583C17 18.1309 17 17.5719 17 16.454V10.8473C17 9.72938 17 9.16959 16.7822 8.74219C16.5905 8.36586 16.2837 8.06012 15.9074 7.86838C15.4796 7.65039 14.9203 7.65039 13.8002 7.65039H11.7689M6.23047 7.65039H11.7689M6.23047 7.65039C6.10302 7.65039 6 7.54707 6 7.41962V4.65039C6 2.99354 7.34315 1.65039 9 1.65039C10.6569 1.65039 12 2.99354 12 4.65039V7.41962C12 7.54707 11.8964 7.65039 11.7689 7.65039" stroke="#fff" stroke-width="2" stroke-linecap="round" stroke-linejoin="round"/>
</svg>
