<svg width="105" height="47" viewBox="0 0 105 47" fill="none" xmlns="http://www.w3.org/2000/svg">
<g clip-path="url(#clip0_403_152115)" filter="url(#filter0_d_403_152115)">
<path d="M71.4229 25.923V37.5114C71.4229 37.6673 71.2981 37.7908 71.1466 37.7908H68.7019C68.5504 37.7908 68.4257 37.6643 68.4257 37.5114V28.5201C68.4257 28.3642 68.3009 28.2406 68.1494 28.2406H66.7889C66.6375 28.2406 66.5127 28.1142 66.5127 27.9612V25.9259C66.5127 25.77 66.6375 25.6465 66.7889 25.6465H71.1466C71.2981 25.6465 71.4229 25.773 71.4229 25.9259V25.923Z" fill="#FF3366"/>
<path d="M78.0414 22.6178V25.2296C78.0414 25.4561 78.2285 25.6414 78.4572 25.6414H80.9316C81.1603 25.6414 81.3475 25.8267 81.3475 26.0532V27.7091C81.3475 27.9356 81.1603 28.1209 80.9316 28.1209H78.4572C78.2285 28.1209 78.0414 28.3062 78.0414 28.5326V33.2151C78.0414 33.7445 78.1632 34.1621 78.4067 34.4651C78.6503 34.768 79.0157 34.921 79.5028 34.921C79.9276 34.921 80.293 34.8739 80.5989 34.7798C80.697 34.7504 80.792 34.718 80.8841 34.6798C81.1603 34.568 81.4604 34.7621 81.4604 35.0563V36.5622C81.4604 36.6769 81.4158 36.7886 81.3297 36.8651C81.0564 37.1092 80.7267 37.3151 80.3405 37.4887C79.892 37.6916 79.3306 37.7916 78.6533 37.7916C77.5839 37.7916 76.7136 37.4534 76.0452 36.7739C75.3769 36.0975 75.0412 35.1651 75.0412 33.9827V28.5297C75.0412 28.3032 74.8541 28.1179 74.6254 28.1179H73.3065C73.0778 28.1179 72.8906 27.9326 72.8906 27.7062V26.8767C72.8906 26.7091 72.9976 26.562 73.152 26.4944C73.8055 26.212 74.4145 25.7473 74.9788 25.1002C75.564 24.4267 76.0423 23.5561 76.4076 22.4855C76.4641 22.3178 76.6215 22.2031 76.7997 22.2031H77.6196C77.8483 22.2031 78.0354 22.3884 78.0354 22.6149H78.0414V22.6178Z" fill="#FF3366"/>
<path d="M86.0527 21.5619V37.2033C86.0527 37.5298 85.7735 37.7945 85.4289 37.7945H83.5457C83.2011 37.7945 82.9219 37.5298 82.9219 37.2033V21.5619C82.9219 21.2354 83.2011 20.9707 83.5457 20.9707H85.4289C85.7735 20.9707 86.0527 21.2354 86.0527 21.5619Z" fill="#FF3366"/>
<path d="M93.452 25.3389C94.6164 25.3389 95.6204 25.5889 96.4611 26.086C97.3017 26.586 97.9463 27.2742 98.3948 28.1536C98.8434 29.0331 99.0662 30.0507 99.0662 31.2037V31.536C99.0662 32.0507 98.6444 32.4655 98.1275 32.4655H90.4311C90.5885 33.2596 90.9806 33.8978 91.6103 34.3802C92.2401 34.8626 93.0094 35.1037 93.9243 35.1037C94.7887 35.1037 95.5759 34.9331 96.2829 34.589C96.7789 34.3478 97.2067 34.1037 97.5631 33.8567C97.7384 33.7331 97.979 33.8567 97.979 34.0684L97.9612 36.1714C97.9612 36.2479 97.9285 36.3214 97.8691 36.3714C97.4948 36.6744 96.9631 36.9802 96.2739 37.2861C95.5254 37.6214 94.7055 37.7891 93.8085 37.7891C92.6292 37.7891 91.5539 37.5244 90.5885 36.9949C89.6201 36.4655 88.8508 35.742 88.2745 34.8214C87.7012 33.9037 87.4131 32.8508 87.4131 31.6684C87.4131 30.486 87.6715 29.4654 88.1913 28.5154C88.7112 27.5654 89.4271 26.7977 90.339 26.2124C91.2509 25.6271 92.2906 25.3359 93.455 25.3359H93.452V25.3389ZM93.3807 27.9477C92.6411 27.9477 92.0203 28.1742 91.5153 28.6242C91.0103 29.0772 90.6657 29.6831 90.4756 30.4478H96.1848C96.1224 29.6066 95.8076 28.9801 95.2402 28.5654C94.6729 28.1536 94.052 27.9448 93.3748 27.9448H93.3807V27.9477Z" fill="#FF3366"/>
<path d="M86.0527 6.76679V18.417C86.0527 18.6023 85.9012 18.7523 85.7141 18.7523H83.2634C83.0763 18.7523 82.9248 18.6023 82.9248 18.417V9.40212C82.9248 9.21683 82.7733 9.06682 82.5862 9.06682H81.2703C81.0831 9.06682 80.9316 8.91682 80.9316 8.73152V6.76973C80.9316 6.58443 81.0831 6.43443 81.2703 6.43443H85.717C85.9042 6.43443 86.0557 6.58443 86.0557 6.76973L86.0527 6.76679ZM84.2288 -0.00390625C84.82 -0.00390625 85.3309 0.204921 85.7586 0.619633C86.1864 1.03435 86.4002 1.52553 86.4002 2.09613C86.4002 2.66672 86.1864 3.13732 85.7586 3.56085C85.3309 3.98439 84.8229 4.19616 84.2288 4.19616C83.6348 4.19616 83.1327 3.98439 82.7139 3.56085C82.2951 3.13732 82.0842 2.64908 82.0842 2.09613C82.0842 1.54318 82.2951 1.03435 82.7139 0.619633C83.1327 0.204921 83.6377 -0.00390625 84.2288 -0.00390625Z" fill="#333399"/>
<path d="M53.5293 12.4569C53.5293 11.8863 53.6036 11.3362 53.7521 10.8068C53.9006 10.2774 54.1115 9.78328 54.3848 9.32445C54.6581 8.86562 54.9818 8.45091 55.3621 8.07737C55.7423 7.70384 56.1641 7.38324 56.6245 7.11853C57.0879 6.85088 57.581 6.645 58.1097 6.49794C58.6385 6.35087 59.191 6.27734 59.7672 6.27734C60.3435 6.27734 60.8871 6.35087 61.4188 6.49794C61.9505 6.645 62.4466 6.85382 62.904 7.11853C63.3645 7.38618 63.7833 7.70384 64.1635 8.07737C64.5437 8.45091 64.8705 8.86562 65.1408 9.32445C65.4141 9.78328 65.625 10.2774 65.7735 10.8068C65.922 11.3362 65.9963 11.8863 65.9963 12.4569C65.9963 13.0274 65.922 13.5775 65.7735 14.1039C65.625 14.6304 65.4141 15.1216 65.1408 15.5775C64.8675 16.0334 64.5437 16.4481 64.1635 16.8246C63.7833 17.201 63.3645 17.5216 62.904 17.7893C62.4466 18.0569 61.9505 18.2628 61.4188 18.4099C60.8871 18.5569 60.3376 18.6305 59.7672 18.6305C59.1969 18.6305 58.6385 18.5569 58.1097 18.4099C57.581 18.2628 57.0849 18.054 56.6245 17.7893C56.1611 17.5216 55.7423 17.201 55.3621 16.8246C54.9818 16.4481 54.6551 16.0334 54.3848 15.5775C54.1115 15.1216 53.9006 14.6304 53.7521 14.1039C53.6036 13.5775 53.5293 13.0274 53.5293 12.4569ZM56.2086 12.4569C56.2086 12.9598 56.2978 13.4333 56.476 13.8833C56.6542 14.3304 56.9008 14.7216 57.2186 15.054C57.5364 15.3863 57.9107 15.651 58.3444 15.8451C58.7781 16.0393 59.2533 16.1363 59.7643 16.1363C60.2752 16.1363 60.7297 16.0393 61.1574 15.8451C61.5852 15.651 61.9535 15.3863 62.2654 15.054C62.5743 14.7216 62.8179 14.3304 62.9931 13.8833C63.1684 13.4333 63.2545 12.9598 63.2545 12.4569C63.2545 11.9539 63.1684 11.4862 62.9931 11.0362C62.8179 10.5833 62.5773 10.1892 62.2654 9.84505C61.9565 9.50387 61.5852 9.23033 61.1574 9.02739C60.7297 8.82444 60.2663 8.7215 59.7643 8.7215C59.2623 8.7215 58.7781 8.82444 58.3444 9.02739C57.9107 9.23033 57.5364 9.50387 57.2186 9.84505C56.9008 10.1862 56.6542 10.5833 56.476 11.0362C56.2978 11.4892 56.2086 11.9627 56.2086 12.4569Z" fill="#333399"/>
<path d="M68.0547 12.4569C68.0547 11.8863 68.1289 11.3362 68.2775 10.8068C68.426 10.2774 68.6369 9.78328 68.9102 9.32445C69.1835 8.86562 69.5072 8.45091 69.8875 8.07737C70.2677 7.70384 70.6895 7.38324 71.1499 7.11853C71.6133 6.85088 72.1064 6.645 72.6351 6.49794C73.1639 6.35087 73.7164 6.27734 74.2926 6.27734C74.8689 6.27734 75.4125 6.35087 75.9442 6.49794C76.4759 6.645 76.972 6.85382 77.4294 7.11853C77.8898 7.38618 78.3087 7.70384 78.6889 8.07737C79.0691 8.45091 79.3959 8.86562 79.6662 9.32445C79.9394 9.78328 80.1503 10.2774 80.2989 10.8068C80.4474 11.3362 80.5217 11.8863 80.5217 12.4569C80.5217 13.0274 80.4474 13.5775 80.2989 14.1039C80.1503 14.6304 79.9394 15.1216 79.6662 15.5775C79.3929 16.0334 79.0691 16.4481 78.6889 16.8246C78.3087 17.201 77.8898 17.5216 77.4294 17.7893C76.972 18.0569 76.4759 18.2628 75.9442 18.4099C75.4125 18.5569 74.863 18.6305 74.2926 18.6305C73.7223 18.6305 73.1639 18.5569 72.6351 18.4099C72.1064 18.2628 71.6103 18.054 71.1499 17.7893C70.6865 17.5216 70.2677 17.201 69.8875 16.8246C69.5072 16.4481 69.1805 16.0334 68.9102 15.5775C68.6369 15.1216 68.426 14.6304 68.2775 14.1039C68.1289 13.5775 68.0547 13.0274 68.0547 12.4569ZM70.734 12.4569C70.734 12.9598 70.8231 13.4333 71.0014 13.8833C71.1796 14.3304 71.4261 14.7216 71.744 15.054C72.0618 15.3863 72.4361 15.651 72.8698 15.8451C73.3035 16.0393 73.7787 16.1363 74.2897 16.1363C74.8006 16.1363 75.2551 16.0393 75.6828 15.8451C76.1105 15.651 76.4789 15.3863 76.7908 15.054C77.0997 14.7216 77.3433 14.3304 77.5185 13.8833C77.6938 13.4333 77.7799 12.9598 77.7799 12.4569C77.7799 11.9539 77.6938 11.4862 77.5185 11.0362C77.3433 10.5833 77.1027 10.1892 76.7908 9.84505C76.4818 9.50387 76.1105 9.23033 75.6828 9.02739C75.2551 8.82444 74.7917 8.7215 74.2897 8.7215C73.7877 8.7215 73.3035 8.82444 72.8698 9.02739C72.4361 9.23033 72.0618 9.50387 71.744 9.84505C71.4261 10.1862 71.1796 10.5833 71.0014 11.0362C70.8231 11.4892 70.734 11.9627 70.734 12.4569Z" fill="#333399"/>
<path d="M65.4969 6.14062H64.1126C63.7058 6.14062 63.376 6.4672 63.376 6.87005V17.9085C63.376 18.3113 63.7058 18.6379 64.1126 18.6379H65.4969C65.9037 18.6379 66.2335 18.3113 66.2335 17.9085V6.87005C66.2335 6.4672 65.9037 6.14062 65.4969 6.14062Z" fill="#333399"/>
<path d="M69.712 6.14062H67.9951C67.6801 6.14062 67.4248 6.39346 67.4248 6.70534V23.2585C67.4248 23.5704 67.6801 23.8233 67.9951 23.8233H69.712C70.027 23.8233 70.2824 23.5704 70.2824 23.2585V6.70534C70.2824 6.39346 70.027 6.14062 69.712 6.14062Z" fill="#333399"/>
<path d="M100.373 12.7947C100.373 13.3653 100.299 13.9153 100.15 14.4447C100.002 14.9742 99.791 15.4683 99.5177 15.9271C99.2445 16.386 98.9207 16.8007 98.5405 17.1742C98.1602 17.5477 97.7384 17.8683 97.278 18.133C96.8146 18.4007 96.3215 18.6066 95.7928 18.7536C95.2641 18.9007 94.7116 18.9742 94.1353 18.9742C93.559 18.9742 93.0154 18.9007 92.4837 18.7536C91.952 18.6066 91.4559 18.3977 90.9985 18.133C90.5381 17.8654 90.1192 17.5477 89.739 17.1742C89.3588 16.8007 89.0321 16.386 88.7617 15.9271C88.4885 15.4683 88.2776 14.9742 88.129 14.4447C87.9805 13.9153 87.9062 13.3653 87.9062 12.7947C87.9062 12.2241 87.9805 11.6741 88.129 11.1476C88.2776 10.6212 88.4885 10.13 88.7617 9.67408C89.035 9.21819 89.3588 8.80348 89.739 8.427C90.1192 8.05053 90.5381 7.72993 90.9985 7.46228C91.4559 7.19463 91.952 6.98875 92.4837 6.84169C93.0154 6.69462 93.565 6.62109 94.1353 6.62109C94.7056 6.62109 95.2641 6.69462 95.7928 6.84169C96.3215 6.98875 96.8176 7.19757 97.278 7.46228C97.7414 7.72993 98.1602 8.05053 98.5405 8.427C98.9207 8.80348 99.2474 9.21819 99.5177 9.67408C99.791 10.13 100.002 10.6212 100.15 11.1476C100.299 11.6741 100.373 12.2241 100.373 12.7947ZM97.6939 12.7947C97.6939 12.2918 97.6048 11.8182 97.4265 11.3682C97.2483 10.9212 97.0018 10.53 96.6839 10.1976C96.3661 9.86526 95.9918 9.60055 95.5581 9.40643C95.1244 9.21231 94.6492 9.11525 94.1383 9.11525C93.6273 9.11525 93.1729 9.21231 92.7451 9.40643C92.3174 9.60055 91.949 9.86526 91.6371 10.1976C91.3282 10.53 91.0846 10.9212 90.9094 11.3682C90.7341 11.8182 90.648 12.2918 90.648 12.7947C90.648 13.2977 90.7341 13.7653 90.9094 14.2153C91.0846 14.6683 91.3252 15.0624 91.6371 15.4065C91.9461 15.7477 92.3174 16.0212 92.7451 16.2242C93.1729 16.4271 93.6363 16.5301 94.1383 16.5301C94.6403 16.5301 95.1244 16.4271 95.5581 16.2242C95.9918 16.0212 96.3661 15.7477 96.6839 15.4065C97.0018 15.0653 97.2483 14.6683 97.4265 14.2153C97.6048 13.7624 97.6939 13.2888 97.6939 12.7947Z" fill="#333399"/>
<path d="M100.659 1.42578H98.4842C98.2955 1.42578 98.1426 1.57722 98.1426 1.76402V18.7702C98.1426 18.957 98.2955 19.1084 98.4842 19.1084H100.659C100.847 19.1084 101 18.957 101 18.7702V1.76402C101 1.57722 100.847 1.42578 100.659 1.42578Z" fill="#333399"/>
<path d="M52.4247 19.109H49.3295L42.1855 9.50586H45.2808L52.4247 19.109Z" fill="#333399"/>
<path d="M45.2808 2.37109H42.1855V38.0864H45.2808V2.37109Z" fill="#333399"/>
<path d="M61.9473 21.5619V37.2033C61.9473 37.5298 61.668 37.7945 61.3235 37.7945H59.4402C59.0956 37.7945 58.8164 37.5298 58.8164 37.2033V21.5619C58.8164 21.2354 59.0956 20.9707 59.4402 20.9707H61.3235C61.668 20.9707 61.9473 21.2354 61.9473 21.5619Z" fill="#FF3366"/>
<path d="M54.0105 20.9707H66.7508C67.0181 20.9707 67.232 21.2472 67.232 21.5884V23.4531C67.232 23.7943 67.0151 24.0707 66.7508 24.0707H54.0105C53.7432 24.0707 53.5293 23.7943 53.5293 23.4531V21.5884C53.5293 21.2472 53.7461 20.9707 54.0105 20.9707Z" fill="#FF3366"/>
<path d="M44.5798 4.54004V2.29883H42.1797V12.346H44.5798V10.1342V4.54004Z" fill="#333399"/>
<path d="M45.4415 2.29883H44.5801V4.52533H48.4357V2.72825C48.4357 2.49001 48.2516 2.29883 48.0228 2.29883H45.4415Z" fill="#333399"/>
<path d="M45.4415 10.1191H44.5801V12.3456H48.0288C48.2545 12.3456 48.4357 12.1545 48.4357 11.9221V10.1191H45.4415Z" fill="#333399"/>
<path d="M48.0909 4.52437C48.0909 4.52437 49.9919 5.14202 50.2266 7.10088C50.2504 7.2097 50.4405 9.20385 48.0909 10.1186V12.3451C48.0909 12.3451 51.4712 12.0951 52.5881 8.66855C52.5881 8.5009 53.3456 6.90088 51.9911 4.65672C51.9673 4.5979 50.6395 2.46551 48.0879 2.29492" fill="#333399"/>
<path d="M45.4415 2.66016H44.5801V4.85431H48.4357V3.08369C48.4357 2.85134 48.2516 2.66016 48.0228 2.66016H45.4415Z" fill="#333399"/>
<path d="M47.2286 11.7324H48.09V9.50586H44.2344V11.3029C44.2344 11.5412 44.4185 11.7324 44.6473 11.7324H47.2286Z" fill="#333399"/>
<path d="M45.1833 4.54004V2.29883H42.7832V12.346H45.1833V10.1342V4.54004Z" fill="#333399"/>
<path d="M47.9698 4.68241C47.9698 4.68241 49.8709 5.21771 50.1055 6.92068C50.1293 7.0148 50.3194 8.75012 47.9698 9.54425V11.4796C47.9698 11.4796 51.3501 11.2619 52.467 8.2854C52.467 8.14128 53.2245 6.75008 51.87 4.79711C51.8462 4.74417 50.5184 2.89414 47.9668 2.74414" fill="#333399"/>
<path d="M52.8661 19.109H49.7709L42.627 9.50586H45.7222L52.8661 19.109Z" fill="#333399"/>
<path d="M8.96659 2.07617H39.9424V37.665H8.96659C6.22487 37.665 4 35.462 4 32.7472V6.9939C4 4.27915 6.22487 2.07617 8.96659 2.07617Z" fill="#333399"/>
<path d="M21.6312 13.0859H21.6223C20.9213 13.0918 20.1905 13.0918 19.4479 13.0859H19.442C19.1093 13.0859 18.94 13.2536 18.9311 13.5859C18.9162 14.283 18.9162 15.0183 18.9311 15.7772C18.937 16.1066 19.1093 16.2713 19.442 16.2713H21.6371C21.9906 16.2713 22.1629 16.1007 22.1689 15.7536C22.1778 14.9271 22.1778 14.2448 22.1689 13.6036C22.1629 13.2565 21.9877 13.0859 21.6342 13.0859H21.6312ZM21.1738 15.286H19.947V14.0683H21.1738V15.286Z" fill="#333366"/>
<path d="M26.2048 14.2033C25.4355 14.1886 24.6602 14.1916 23.9057 14.2033C23.6176 14.2092 23.4482 14.3857 23.4512 14.6739C23.4512 14.9798 23.6265 15.1504 23.9413 15.1533H26.1573C26.484 15.1533 26.6563 14.9974 26.6712 14.6974C26.6771 14.5445 26.6385 14.418 26.5583 14.3327C26.4781 14.2474 26.3563 14.2033 26.2048 14.2004V14.2033Z" fill="#333366"/>
<path d="M15.0218 18.5469H26.2798C26.6066 18.5469 26.8739 18.8116 26.8739 19.1351C26.8739 19.4587 26.6066 19.7234 26.2798 19.7234H15.0218C14.6951 19.7234 14.4277 19.4587 14.4277 19.1351C14.4277 18.8116 14.6951 18.5469 15.0218 18.5469Z" fill="#333366"/>
<path d="M12.4808 21.7832H26.2785C26.6053 21.7832 26.8726 22.0479 26.8726 22.3714C26.8726 22.695 26.6053 22.9597 26.2785 22.9597H12.4808C12.1541 22.9597 11.8867 22.695 11.8867 22.3714C11.8867 22.0479 12.1541 21.7832 12.4808 21.7832Z" fill="#333366"/>
<path d="M9.94175 25.0176H26.2792C26.606 25.0176 26.8733 25.2823 26.8733 25.6058C26.8733 25.9294 26.606 26.1941 26.2792 26.1941H9.94175C9.615 26.1941 9.34766 25.9294 9.34766 25.6058C9.34766 25.2823 9.615 25.0176 9.94175 25.0176Z" fill="#333366"/>
<path d="M31.0328 13.0359C31.0328 11.0123 29.3693 9.36523 27.3257 9.36523H18.4024C16.3588 9.36523 14.6953 11.0123 14.6953 13.0359V15.9771C14.6953 16.3477 14.9983 16.6477 15.3726 16.6477C15.7469 16.6477 16.0498 16.3477 16.0498 15.9771V13.0359C16.0498 11.7535 17.1043 10.7094 18.3995 10.7094H27.3227C28.6178 10.7094 29.6723 11.7535 29.6723 13.0359V26.4126C29.6723 27.6949 28.6178 28.7391 27.3227 28.7391H18.3995C17.5618 28.7391 16.7806 28.2891 16.3617 27.5655C16.237 27.3508 16.0112 27.2185 15.7706 27.2185C15.53 27.2185 15.3102 27.342 15.1884 27.5508C15.0636 27.7655 15.0636 28.0214 15.1884 28.2391C15.8478 29.3773 17.0776 30.0832 18.3965 30.0832H27.3197C29.3634 30.0832 31.0268 28.4361 31.0268 26.4126V13.0359H31.0328Z" fill="#333366"/>
<path d="M21.6312 13.0859H21.6223C20.9213 13.0918 20.1905 13.0918 19.4479 13.0859H19.442C19.1093 13.0859 18.94 13.2536 18.9311 13.5859C18.9162 14.283 18.9162 15.0183 18.9311 15.7772C18.937 16.1066 19.1093 16.2713 19.442 16.2713H21.6371C21.9906 16.2713 22.1629 16.1007 22.1689 15.7536C22.1778 14.9271 22.1778 14.2448 22.1689 13.6036C22.1629 13.2565 21.9877 13.0859 21.6342 13.0859H21.6312ZM21.1738 15.286H19.947V14.0683H21.1738V15.286Z" fill="white"/>
<path d="M26.2048 14.2033C25.4355 14.1886 24.6602 14.1916 23.9057 14.2033C23.6176 14.2092 23.4482 14.3857 23.4512 14.6739C23.4512 14.9798 23.6265 15.1504 23.9413 15.1533H26.1573C26.484 15.1533 26.6563 14.9974 26.6712 14.6974C26.6771 14.5445 26.6385 14.418 26.5583 14.3327C26.4781 14.2474 26.3563 14.2033 26.2048 14.2004V14.2033Z" fill="white"/>
<path d="M15.0218 18.5469H26.2798C26.6066 18.5469 26.8739 18.8116 26.8739 19.1351C26.8739 19.4587 26.6066 19.7234 26.2798 19.7234H15.0218C14.6951 19.7234 14.4277 19.4587 14.4277 19.1351C14.4277 18.8116 14.6951 18.5469 15.0218 18.5469Z" fill="white"/>
<path d="M12.4808 21.7832H26.2785C26.6053 21.7832 26.8726 22.0479 26.8726 22.3714C26.8726 22.695 26.6053 22.9597 26.2785 22.9597H12.4808C12.1541 22.9597 11.8867 22.695 11.8867 22.3714C11.8867 22.0479 12.1541 21.7832 12.4808 21.7832Z" fill="white"/>
<path d="M9.94175 25.0176H26.2792C26.606 25.0176 26.8733 25.2823 26.8733 25.6058C26.8733 25.9294 26.606 26.1941 26.2792 26.1941H9.94175C9.615 26.1941 9.34766 25.9294 9.34766 25.6058C9.34766 25.2823 9.615 25.0176 9.94175 25.0176Z" fill="white"/>
<path d="M31.0328 13.0359C31.0328 11.0123 29.3693 9.36523 27.3257 9.36523H18.4024C16.3588 9.36523 14.6953 11.0123 14.6953 13.0359V15.9771C14.6953 16.3477 14.9983 16.6477 15.3726 16.6477C15.7469 16.6477 16.0498 16.3477 16.0498 15.9771V13.0359C16.0498 11.7535 17.1043 10.7094 18.3995 10.7094H27.3227C28.6178 10.7094 29.6723 11.7535 29.6723 13.0359V26.4126C29.6723 27.6949 28.6178 28.7391 27.3227 28.7391H18.3995C17.5618 28.7391 16.7806 28.2891 16.3617 27.5655C16.237 27.3508 16.0112 27.2185 15.7706 27.2185C15.53 27.2185 15.3102 27.342 15.1884 27.5508C15.0636 27.7655 15.0636 28.0214 15.1884 28.2391C15.8478 29.3773 17.0776 30.0832 18.3965 30.0832H27.3197C29.3634 30.0832 31.0268 28.4361 31.0268 26.4126V13.0359H31.0328Z" fill="white"/>
</g>
<defs>
<filter id="filter0_d_403_152115" x="0" y="0" width="105" height="46.0859" filterUnits="userSpaceOnUse" color-interpolation-filters="sRGB">
<feFlood flood-opacity="0" result="BackgroundImageFix"/>
<feColorMatrix in="SourceAlpha" type="matrix" values="0 0 0 0 0 0 0 0 0 0 0 0 0 0 0 0 0 0 127 0" result="hardAlpha"/>
<feOffset dy="4"/>
<feGaussianBlur stdDeviation="2"/>
<feComposite in2="hardAlpha" operator="out"/>
<feColorMatrix type="matrix" values="0 0 0 0 0 0 0 0 0 0 0 0 0 0 0 0 0 0 0.25 0"/>
<feBlend mode="normal" in2="BackgroundImageFix" result="effect1_dropShadow_403_152115"/>
<feBlend mode="normal" in="SourceGraphic" in2="effect1_dropShadow_403_152115" result="shape"/>
</filter>
<clipPath id="clip0_403_152115">
<rect width="97" height="38.0859" fill="white" transform="translate(4)"/>
</clipPath>
</defs>
</svg>
