<svg width="22" height="21" viewBox="0 0 22 21" fill="none" xmlns="http://www.w3.org/2000/svg">
<g clip-path="url(#clip0_988_166224)">
<path d="M9.26672 3.57013H6.83953C5.86856 3.57013 5.38272 3.57013 5.01186 3.75909C4.68564 3.92531 4.42061 4.19034 4.25439 4.51656C4.06543 4.88742 4.06543 5.37326 4.06543 6.34423V14.666C4.06543 15.637 4.06543 16.1222 4.25439 16.4931C4.42061 16.8193 4.68564 17.0848 5.01186 17.251C5.38235 17.4398 5.86761 17.4398 6.83668 17.4398H15.1638C16.1329 17.4398 16.6175 17.4398 16.9879 17.251C17.3142 17.0848 17.5801 16.819 17.7463 16.4928C17.9351 16.1223 17.9351 15.6376 17.9351 14.6685V12.2387M14.4677 4.43698L9.26655 9.6381V12.2387H11.8671L17.0682 7.03754M14.4677 4.43698L17.0682 1.83643L19.6688 4.43698L17.0682 7.03754M14.4677 4.43698L17.0682 7.03754" stroke="#393949" stroke-width="2" stroke-linecap="round" stroke-linejoin="round"/>
</g>
<defs>
<clipPath id="clip0_988_166224">
<rect width="20.8045" height="20.8045" fill="white" transform="translate(0.597656 0.102783)"/>
</clipPath>
</defs>
</svg>
