<svg width="22" height="21" viewBox="0 0 22 21" fill="none" xmlns="http://www.w3.org/2000/svg">
<path d="M7.10755 17.268C8.25308 17.9287 9.5822 18.3067 10.9996 18.3067C15.3084 18.3067 18.8016 14.8138 18.8016 10.505C18.8016 6.1963 15.3087 2.70337 10.9999 2.70337C6.69117 2.70337 3.19824 6.1963 3.19824 10.505C3.19824 11.9224 3.57623 13.2516 4.2369 14.3971L4.23946 14.4015C4.30303 14.5118 4.33508 14.5673 4.3496 14.6199C4.3633 14.6694 4.36712 14.714 4.36362 14.7652C4.35985 14.8203 4.34128 14.8775 4.3032 14.9917L3.63675 16.9911L3.63591 16.9937C3.49529 17.4155 3.42499 17.6265 3.4751 17.767C3.5188 17.8895 3.61579 17.9862 3.73833 18.0299C3.87856 18.08 4.08854 18.01 4.50853 17.87L4.51376 17.868L6.51313 17.2016C6.62697 17.1636 6.68484 17.1444 6.73985 17.1406C6.79113 17.1371 6.83536 17.1417 6.88491 17.1554C6.93757 17.17 6.99318 17.2021 7.10396 17.266L7.10755 17.268Z" stroke="#E6E6E8" stroke-width="2" stroke-linecap="round" stroke-linejoin="round"/>
</svg>
